<?xml version="1.0" encoding="UTF-8" standalone="no"?>
<!DOCTYPE svg PUBLIC "-//W3C//DTD SVG 1.1//EN" "http://www.w3.org/Graphics/SVG/1.1/DTD/svg11.dtd">
<svg width="100%" height="100%" viewBox="0 0 137 34" version="1.1" xmlns="http://www.w3.org/2000/svg" xmlns:xlink="http://www.w3.org/1999/xlink" xml:space="preserve" xmlns:serif="http://www.serif.com/" style="fill-rule:evenodd;clip-rule:evenodd;stroke-linejoin:round;stroke-miterlimit:1.41421;"><rect id="cc" x="0" y="0" width="137" height="34" style="fill:none;"/><clipPath id="_clip1"><rect x="0" y="0" width="137" height="34"/></clipPath><g clip-path="url(#_clip1)"><path d="M137,10.65c0,-1.764 -0.701,-3.455 -1.948,-4.702c-1.247,-1.247 -2.938,-1.948 -4.702,-1.948c-22.703,0 -96.997,0 -119.7,0c-1.764,0 -3.455,0.701 -4.702,1.948c-1.247,1.247 -1.948,2.938 -1.948,4.702c0,4.969 0,11.731 0,16.7c0,1.764 0.701,3.455 1.948,4.702c1.247,1.247 2.938,1.948 4.702,1.948c22.703,0 96.997,0 119.7,0c1.764,0 3.455,-0.701 4.702,-1.948c1.247,-1.247 1.948,-2.938 1.948,-4.702c0,-4.969 0,-11.731 0,-16.7Z"/><path d="M130.35,4l0.082,0.001l0.083,0.001l0.082,0.003l0.083,0.003l0.082,0.005l0.082,0.005l0.082,0.007l0.081,0.008l0.082,0.008l0.081,0.01l0.081,0.01l0.081,0.012l0.081,0.012l0.08,0.014l0.08,0.014l0.08,0.016l0.08,0.016l0.08,0.018l0.079,0.018l0.079,0.02l0.079,0.02l0.078,0.021l0.078,0.022l0.078,0.023l0.077,0.025l0.078,0.025l0.077,0.026l0.076,0.026l0.076,0.028l0.076,0.029l0.076,0.03l0.075,0.03l0.074,0.032l0.075,0.032l0.074,0.033l0.073,0.035l0.073,0.035l0.073,0.036l0.072,0.037l0.072,0.037l0.072,0.039l0.071,0.04l0.07,0.04l0.07,0.041l0.07,0.043l0.069,0.043l0.068,0.044l0.068,0.044l0.068,0.046l0.067,0.046l0.066,0.048l0.066,0.048l0.066,0.049l0.064,0.05l0.065,0.05l0.063,0.052l0.064,0.052l0.062,0.054l0.062,0.054l0.061,0.054l0.061,0.056l0.06,0.056l0.059,0.058l0.059,0.058l0.058,0.059l0.058,0.059l0.056,0.06l0.056,0.061l0.054,0.061l0.054,0.062l0.054,0.062l0.052,0.064l0.052,0.063l0.05,0.064l0.05,0.065l0.049,0.066l0.048,0.066l0.048,0.066l0.046,0.067l0.046,0.068l0.044,0.068l0.044,0.068l0.043,0.069l0.043,0.07l0.041,0.07l0.04,0.07l0.04,0.071l0.039,0.072l0.037,0.071l0.037,0.073l0.036,0.072l0.035,0.074l0.035,0.073l0.033,0.074l0.032,0.074l0.032,0.075l0.03,0.075l0.03,0.076l0.029,0.076l0.028,0.076l0.026,0.076l0.026,0.077l0.025,0.078l0.025,0.077l0.023,0.078l0.022,0.078l0.021,0.078l0.02,0.079l0.02,0.079l0.018,0.079l0.018,0.08l0.016,0.08l0.016,0.08l0.014,0.08l0.014,0.08l0.012,0.081l0.012,0.081l0.01,0.081l0.01,0.081l0.008,0.082l0.008,0.081l0.007,0.082l0.005,0.082l0.005,0.082l0.003,0.083l0.003,0.082l0.001,0.082l0.001,0.083l0,16.7l-0.001,0.083l-0.001,0.082l-0.003,0.082l-0.003,0.083l-0.005,0.082l-0.005,0.082l-0.007,0.082l-0.008,0.081l-0.008,0.082l-0.01,0.081l-0.01,0.081l-0.012,0.081l-0.012,0.081l-0.014,0.08l-0.014,0.08l-0.016,0.08l-0.016,0.08l-0.018,0.08l-0.018,0.079l-0.02,0.079l-0.02,0.079l-0.021,0.078l-0.022,0.078l-0.023,0.078l-0.025,0.077l-0.025,0.078l-0.026,0.077l-0.026,0.076l-0.028,0.076l-0.029,0.076l-0.03,0.076l-0.03,0.075l-0.032,0.075l-0.032,0.074l-0.033,0.074l-0.035,0.073l-0.035,0.074l-0.036,0.072l-0.037,0.073l-0.037,0.071l-0.039,0.072l-0.04,0.071l-0.04,0.07l-0.041,0.07l-0.043,0.07l-0.043,0.069l-0.044,0.068l-0.044,0.068l-0.046,0.068l-0.046,0.067l-0.048,0.066l-0.048,0.066l-0.049,0.066l-0.05,0.065l-0.05,0.064l-0.052,0.063l-0.052,0.064l-0.054,0.062l-0.054,0.062l-0.054,0.061l-0.056,0.061l-0.056,0.06l-0.058,0.059l-0.058,0.059l-0.059,0.058l-0.059,0.058l-0.06,0.056l-0.061,0.056l-0.061,0.054l-0.062,0.054l-0.062,0.054l-0.064,0.052l-0.063,0.052l-0.065,0.05l-0.064,0.05l-0.066,0.049l-0.066,0.048l-0.066,0.048l-0.067,0.046l-0.068,0.046l-0.068,0.044l-0.068,0.044l-0.069,0.043l-0.07,0.043l-0.07,0.041l-0.07,0.04l-0.071,0.04l-0.072,0.039l-0.072,0.037l-0.072,0.037l-0.073,0.036l-0.073,0.035l-0.073,0.035l-0.074,0.033l-0.075,0.032l-0.074,0.032l-0.075,0.03l-0.076,0.03l-0.076,0.029l-0.076,0.028l-0.076,0.026l-0.077,0.026l-0.078,0.025l-0.077,0.025l-0.078,0.023l-0.078,0.022l-0.078,0.021l-0.079,0.02l-0.079,0.02l-0.079,0.018l-0.08,0.018l-0.08,0.016l-0.08,0.016l-0.08,0.014l-0.08,0.014l-0.081,0.012l-0.081,0.012l-0.081,0.01l-0.081,0.01l-0.082,0.008l-0.081,0.008l-0.082,0.007l-0.082,0.005l-0.082,0.005l-0.083,0.003l-0.082,0.003l-0.083,0.001l-0.082,0.001l-119.7,0l-0.082,-0.001l-0.083,-0.001l-0.082,-0.003l-0.083,-0.003l-0.082,-0.005l-0.082,-0.005l-0.082,-0.007l-0.081,-0.008l-0.082,-0.008l-0.081,-0.01l-0.081,-0.01l-0.081,-0.012l-0.081,-0.012l-0.08,-0.014l-0.08,-0.014l-0.08,-0.016l-0.08,-0.016l-0.08,-0.018l-0.079,-0.018l-0.079,-0.02l-0.079,-0.02l-0.078,-0.021l-0.078,-0.022l-0.078,-0.023l-0.077,-0.025l-0.078,-0.025l-0.077,-0.026l-0.076,-0.026l-0.076,-0.028l-0.076,-0.029l-0.076,-0.03l-0.075,-0.03l-0.074,-0.032l-0.075,-0.032l-0.074,-0.033l-0.073,-0.035l-0.073,-0.035l-0.073,-0.036l-0.072,-0.037l-0.072,-0.037l-0.072,-0.039l-0.071,-0.04l-0.07,-0.04l-0.07,-0.041l-0.07,-0.043l-0.069,-0.043l-0.068,-0.044l-0.068,-0.044l-0.068,-0.046l-0.067,-0.046l-0.066,-0.048l-0.066,-0.048l-0.066,-0.049l-0.064,-0.05l-0.065,-0.05l-0.063,-0.052l-0.064,-0.052l-0.062,-0.054l-0.062,-0.054l-0.061,-0.054l-0.061,-0.056l-0.06,-0.056l-0.059,-0.058l-0.059,-0.058l-0.058,-0.059l-0.058,-0.059l-0.056,-0.06l-0.056,-0.061l-0.054,-0.061l-0.054,-0.062l-0.054,-0.062l-0.052,-0.064l-0.052,-0.063l-0.05,-0.064l-0.05,-0.065l-0.049,-0.066l-0.048,-0.066l-0.048,-0.066l-0.046,-0.067l-0.046,-0.068l-0.044,-0.068l-0.044,-0.068l-0.043,-0.069l-0.043,-0.07l-0.041,-0.07l-0.04,-0.07l-0.04,-0.071l-0.039,-0.072l-0.037,-0.071l-0.037,-0.073l-0.036,-0.072l-0.035,-0.074l-0.035,-0.073l-0.033,-0.074l-0.032,-0.074l-0.032,-0.075l-0.03,-0.075l-0.03,-0.076l-0.029,-0.076l-0.028,-0.076l-0.026,-0.076l-0.026,-0.077l-0.025,-0.078l-0.025,-0.077l-0.023,-0.078l-0.022,-0.078l-0.021,-0.078l-0.02,-0.079l-0.02,-0.079l-0.018,-0.079l-0.018,-0.08l-0.016,-0.08l-0.016,-0.08l-0.014,-0.08l-0.014,-0.08l-0.012,-0.081l-0.012,-0.081l-0.01,-0.081l-0.01,-0.081l-0.008,-0.082l-0.008,-0.081l-0.007,-0.082l-0.005,-0.082l-0.005,-0.082l-0.003,-0.083l-0.003,-0.082l-0.001,-0.082l-0.001,-0.083l0,-16.7l0.001,-0.083l0.001,-0.082l0.003,-0.082l0.003,-0.083l0.005,-0.082l0.005,-0.082l0.007,-0.082l0.008,-0.081l0.008,-0.082l0.01,-0.081l0.01,-0.081l0.012,-0.081l0.012,-0.081l0.014,-0.08l0.014,-0.08l0.016,-0.08l0.016,-0.08l0.018,-0.08l0.018,-0.079l0.02,-0.079l0.02,-0.079l0.021,-0.078l0.022,-0.078l0.023,-0.078l0.025,-0.077l0.025,-0.078l0.026,-0.077l0.026,-0.076l0.028,-0.076l0.029,-0.076l0.03,-0.076l0.03,-0.075l0.032,-0.075l0.032,-0.074l0.033,-0.074l0.035,-0.073l0.035,-0.074l0.036,-0.072l0.037,-0.073l0.037,-0.071l0.039,-0.072l0.04,-0.071l0.04,-0.07l0.041,-0.07l0.043,-0.07l0.043,-0.069l0.044,-0.068l0.044,-0.068l0.046,-0.068l0.046,-0.067l0.048,-0.066l0.048,-0.066l0.049,-0.066l0.05,-0.065l0.05,-0.064l0.052,-0.063l0.052,-0.064l0.054,-0.062l0.054,-0.062l0.054,-0.061l0.056,-0.061l0.056,-0.06l0.058,-0.059l0.058,-0.059l0.059,-0.058l0.059,-0.058l0.06,-0.056l0.061,-0.056l0.061,-0.054l0.062,-0.054l0.062,-0.054l0.064,-0.052l0.063,-0.052l0.065,-0.05l0.064,-0.05l0.066,-0.049l0.066,-0.048l0.066,-0.048l0.067,-0.046l0.068,-0.046l0.068,-0.044l0.068,-0.044l0.069,-0.043l0.07,-0.043l0.07,-0.041l0.07,-0.04l0.071,-0.04l0.072,-0.039l0.072,-0.037l0.072,-0.037l0.073,-0.036l0.073,-0.035l0.073,-0.035l0.074,-0.033l0.075,-0.032l0.074,-0.032l0.075,-0.03l0.076,-0.03l0.076,-0.029l0.076,-0.028l0.076,-0.026l0.077,-0.026l0.078,-0.025l0.077,-0.025l0.078,-0.023l0.078,-0.022l0.078,-0.021l0.079,-0.02l0.079,-0.02l0.079,-0.018l0.08,-0.018l0.08,-0.016l0.08,-0.016l0.08,-0.014l0.08,-0.014l0.081,-0.012l0.081,-0.012l0.081,-0.01l0.081,-0.01l0.082,-0.008l0.081,-0.008l0.082,-0.007l0.082,-0.005l0.082,-0.005l0.083,-0.003l0.082,-0.003l0.083,-0.001l0.082,-0.001l119.7,0Zm-119.694,2l-0.064,0l-0.057,0.001l-0.058,0.002l-0.058,0.003l-0.057,0.003l-0.057,0.004l-0.057,0.004l-0.058,0.006l-0.057,0.006l-0.056,0.007l-0.057,0.007l-0.057,0.008l-0.056,0.009l-0.056,0.009l-0.056,0.01l-0.056,0.011l-0.056,0.012l-0.056,0.012l-0.055,0.013l-0.055,0.013l-0.055,0.014l-0.055,0.015l-0.055,0.016l-0.054,0.016l-0.054,0.017l-0.054,0.017l-0.054,0.019l-0.054,0.018l-0.053,0.02l-0.053,0.02l-0.053,0.021l-0.052,0.021l-0.053,0.022l-0.052,0.023l-0.051,0.023l-0.052,0.024l-0.051,0.024l-0.051,0.026l-0.05,0.025l-0.051,0.027l-0.05,0.027l-0.049,0.028l-0.049,0.028l-0.049,0.029l-0.049,0.029l-0.048,0.03l-0.048,0.031l-0.048,0.031l-0.047,0.032l-0.047,0.033l-0.046,0.033l-0.046,0.033l-0.046,0.035l-0.045,0.035l-0.045,0.035l-0.045,0.036l-0.044,0.037l-0.044,0.037l-0.043,0.038l-0.043,0.038l-0.042,0.039l-0.042,0.039l-0.042,0.04l-0.041,0.041l-0.041,0.041l-0.04,0.042l-0.039,0.042l-0.039,0.042l-0.038,0.043l-0.038,0.043l-0.037,0.044l-0.037,0.044l-0.036,0.045l-0.035,0.045l-0.035,0.045l-0.035,0.046l-0.033,0.046l-0.033,0.046l-0.033,0.047l-0.032,0.047l-0.031,0.048l-0.031,0.048l-0.03,0.048l-0.029,0.049l-0.029,0.049l-0.028,0.049l-0.028,0.05l-0.027,0.049l-0.027,0.051l-0.025,0.05l-0.026,0.051l-0.024,0.051l-0.024,0.052l-0.023,0.051l-0.023,0.052l-0.022,0.053l-0.021,0.052l-0.021,0.053l-0.02,0.053l-0.02,0.053l-0.018,0.054l-0.019,0.054l-0.017,0.054l-0.017,0.054l-0.016,0.054l-0.016,0.055l-0.015,0.055l-0.014,0.055l-0.013,0.055l-0.013,0.056l-0.012,0.055l-0.012,0.056l-0.011,0.056l-0.01,0.056l-0.009,0.056l-0.009,0.056l-0.008,0.057l-0.008,0.057l-0.006,0.056l-0.006,0.057l-0.005,0.057l-0.005,0.058l-0.004,0.057l-0.003,0.057l-0.003,0.058l-0.002,0.057l-0.001,0.058l0,0.064l0,16.688l0,0.064l0.001,0.058l0.002,0.057l0.003,0.058l0.003,0.057l0.004,0.057l0.005,0.058l0.005,0.057l0.006,0.057l0.006,0.056l0.008,0.057l0.008,0.057l0.009,0.056l0.009,0.056l0.01,0.056l0.011,0.056l0.012,0.056l0.012,0.055l0.013,0.056l0.013,0.055l0.014,0.055l0.015,0.055l0.016,0.055l0.016,0.054l0.017,0.054l0.017,0.054l0.019,0.054l0.018,0.054l0.02,0.053l0.02,0.053l0.021,0.053l0.021,0.052l0.022,0.053l0.023,0.052l0.023,0.051l0.024,0.052l0.024,0.051l0.026,0.051l0.025,0.05l0.027,0.051l0.027,0.049l0.028,0.05l0.028,0.049l0.029,0.049l0.029,0.049l0.03,0.048l0.031,0.048l0.031,0.048l0.032,0.047l0.033,0.047l0.033,0.046l0.033,0.046l0.035,0.046l0.035,0.045l0.035,0.045l0.036,0.045l0.037,0.044l0.037,0.044l0.038,0.043l0.038,0.043l0.039,0.042l0.039,0.042l0.04,0.042l0.041,0.041l0.041,0.041l0.042,0.04l0.042,0.039l0.042,0.039l0.043,0.038l0.043,0.038l0.044,0.037l0.044,0.037l0.045,0.036l0.045,0.035l0.045,0.035l0.046,0.035l0.046,0.033l0.046,0.033l0.047,0.033l0.047,0.032l0.048,0.031l0.048,0.031l0.048,0.03l0.049,0.029l0.049,0.029l0.049,0.028l0.049,0.028l0.05,0.027l0.051,0.027l0.05,0.025l0.051,0.026l0.051,0.024l0.052,0.024l0.051,0.023l0.052,0.023l0.053,0.022l0.052,0.021l0.053,0.021l0.053,0.02l0.053,0.02l0.054,0.018l0.054,0.019l0.054,0.017l0.054,0.017l0.054,0.016l0.055,0.016l0.055,0.015l0.055,0.014l0.055,0.013l0.055,0.013l0.056,0.012l0.056,0.012l0.056,0.011l0.056,0.01l0.056,0.009l0.056,0.009l0.057,0.008l0.057,0.007l0.056,0.007l0.057,0.006l0.058,0.006l0.057,0.004l0.057,0.004l0.057,0.003l0.058,0.003l0.058,0.002l0.057,0.001l0.064,0l119.688,0l0.064,0l0.057,-0.001l0.058,-0.002l0.058,-0.003l0.057,-0.003l0.057,-0.004l0.057,-0.004l0.058,-0.006l0.056,-0.006l0.057,-0.007l0.057,-0.007l0.057,-0.008l0.056,-0.009l0.056,-0.009l0.056,-0.01l0.056,-0.011l0.056,-0.012l0.056,-0.012l0.055,-0.013l0.055,-0.013l0.055,-0.014l0.055,-0.015l0.055,-0.016l0.054,-0.016l0.054,-0.017l0.054,-0.017l0.054,-0.019l0.054,-0.018l0.053,-0.02l0.053,-0.02l0.053,-0.021l0.052,-0.021l0.053,-0.022l0.052,-0.023l0.051,-0.023l0.052,-0.024l0.051,-0.024l0.051,-0.026l0.05,-0.025l0.05,-0.027l0.051,-0.027l0.049,-0.028l0.049,-0.028l0.049,-0.029l0.049,-0.029l0.048,-0.03l0.048,-0.031l0.048,-0.031l0.047,-0.032l0.047,-0.033l0.046,-0.033l0.046,-0.033l0.046,-0.035l0.045,-0.035l0.045,-0.035l0.045,-0.036l0.044,-0.037l0.044,-0.037l0.043,-0.038l0.043,-0.038l0.042,-0.039l0.042,-0.039l0.042,-0.04l0.041,-0.041l0.041,-0.041l0.04,-0.042l0.039,-0.042l0.039,-0.042l0.038,-0.043l0.038,-0.043l0.037,-0.044l0.037,-0.044l0.036,-0.045l0.035,-0.045l0.035,-0.045l0.035,-0.046l0.033,-0.046l0.033,-0.046l0.033,-0.047l0.032,-0.047l0.031,-0.048l0.031,-0.048l0.03,-0.048l0.029,-0.049l0.029,-0.049l0.028,-0.049l0.028,-0.049l0.027,-0.051l0.027,-0.05l0.025,-0.05l0.026,-0.051l0.024,-0.051l0.024,-0.052l0.023,-0.051l0.023,-0.052l0.022,-0.052l0.021,-0.053l0.021,-0.053l0.02,-0.053l0.02,-0.053l0.019,-0.054l0.018,-0.053l0.017,-0.054l0.017,-0.055l0.016,-0.054l0.016,-0.055l0.015,-0.055l0.014,-0.055l0.013,-0.055l0.013,-0.055l0.012,-0.056l0.012,-0.056l0.011,-0.055l0.01,-0.057l0.009,-0.056l0.009,-0.057l0.008,-0.056l0.007,-0.057l0.007,-0.057l0.006,-0.056l0.006,-0.057l0.004,-0.058l0.004,-0.057l0.003,-0.057l0.003,-0.058l0.002,-0.058l0.001,-0.057l0,-0.064l0,-16.688l0,-0.064l-0.001,-0.057l-0.002,-0.058l-0.003,-0.058l-0.003,-0.057l-0.004,-0.057l-0.004,-0.058l-0.006,-0.057l-0.006,-0.056l-0.007,-0.057l-0.007,-0.057l-0.008,-0.056l-0.009,-0.057l-0.009,-0.056l-0.01,-0.057l-0.011,-0.055l-0.012,-0.056l-0.012,-0.056l-0.013,-0.055l-0.013,-0.055l-0.014,-0.055l-0.015,-0.055l-0.016,-0.055l-0.016,-0.054l-0.017,-0.055l-0.017,-0.054l-0.018,-0.053l-0.019,-0.054l-0.02,-0.053l-0.02,-0.053l-0.021,-0.053l-0.021,-0.053l-0.022,-0.052l-0.023,-0.052l-0.023,-0.051l-0.024,-0.052l-0.024,-0.051l-0.026,-0.051l-0.025,-0.05l-0.027,-0.05l-0.027,-0.051l-0.028,-0.049l-0.028,-0.049l-0.029,-0.049l-0.029,-0.049l-0.03,-0.048l-0.031,-0.048l-0.031,-0.048l-0.032,-0.047l-0.033,-0.047l-0.033,-0.046l-0.033,-0.046l-0.035,-0.046l-0.035,-0.045l-0.035,-0.045l-0.036,-0.045l-0.037,-0.044l-0.037,-0.044l-0.038,-0.043l-0.038,-0.043l-0.039,-0.042l-0.039,-0.042l-0.04,-0.042l-0.041,-0.041l-0.041,-0.041l-0.042,-0.04l-0.042,-0.039l-0.042,-0.039l-0.043,-0.038l-0.043,-0.038l-0.044,-0.037l-0.044,-0.037l-0.045,-0.036l-0.045,-0.035l-0.045,-0.035l-0.046,-0.035l-0.046,-0.033l-0.046,-0.033l-0.047,-0.033l-0.047,-0.032l-0.048,-0.031l-0.048,-0.031l-0.048,-0.03l-0.049,-0.029l-0.049,-0.029l-0.049,-0.028l-0.049,-0.028l-0.051,-0.027l-0.05,-0.027l-0.05,-0.025l-0.051,-0.026l-0.051,-0.024l-0.052,-0.024l-0.051,-0.023l-0.052,-0.023l-0.053,-0.022l-0.052,-0.021l-0.053,-0.021l-0.053,-0.02l-0.053,-0.02l-0.054,-0.018l-0.054,-0.019l-0.054,-0.017l-0.054,-0.017l-0.054,-0.016l-0.055,-0.016l-0.055,-0.015l-0.055,-0.014l-0.055,-0.013l-0.055,-0.013l-0.056,-0.012l-0.056,-0.012l-0.056,-0.011l-0.056,-0.01l-0.056,-0.009l-0.056,-0.009l-0.057,-0.008l-0.057,-0.007l-0.057,-0.007l-0.056,-0.006l-0.058,-0.006l-0.057,-0.004l-0.057,-0.004l-0.057,-0.003l-0.058,-0.003l-0.058,-0.002l-0.057,-0.001l-0.064,0l-119.688,0Z"/><path d="M133,6.65c0,-1.764 -0.701,-3.455 -1.948,-4.702c-1.247,-1.247 -2.938,-1.948 -4.702,-1.948c-22.703,0 -96.997,0 -119.7,0c-1.764,0 -3.455,0.701 -4.702,1.948c-1.247,1.247 -1.948,2.938 -1.948,4.702c0,4.969 0,11.731 0,16.7c0,1.764 0.701,3.455 1.948,4.702c1.247,1.247 2.938,1.948 4.702,1.948c22.703,0 96.997,0 119.7,0c1.764,0 3.455,-0.701 4.702,-1.948c1.247,-1.247 1.948,-2.938 1.948,-4.702c0,-4.969 0,-11.731 0,-16.7Z" style="fill:#484848;"/><clipPath id="_clip2"><path d="M133,6.65c0,-1.764 -0.701,-3.455 -1.948,-4.702c-1.247,-1.247 -2.938,-1.948 -4.702,-1.948c-22.703,0 -96.997,0 -119.7,0c-1.764,0 -3.455,0.701 -4.702,1.948c-1.247,1.247 -1.948,2.938 -1.948,4.702c0,4.969 0,11.731 0,16.7c0,1.764 0.701,3.455 1.948,4.702c1.247,1.247 2.938,1.948 4.702,1.948c22.703,0 96.997,0 119.7,0c1.764,0 3.455,-0.701 4.702,-1.948c1.247,-1.247 1.948,-2.938 1.948,-4.702c0,-4.969 0,-11.731 0,-16.7Z"/></clipPath><g clip-path="url(#_clip2)"><circle cx="22" cy="15" r="15.5" style="fill:#fff;"/><path d="M16.342,21.654c-0.977,0 -1.836,-0.191 -2.575,-0.573c-0.739,-0.382 -1.31,-0.918 -1.711,-1.607c-0.401,-0.69 -0.601,-1.485 -0.601,-2.388l0,-4.342c0,-0.902 0.2,-1.698 0.601,-2.387c0.401,-0.689 0.972,-1.222 1.711,-1.598c0.739,-0.376 1.598,-0.564 2.575,-0.564c0.965,0 1.814,0.179 2.547,0.536c0.733,0.357 1.303,0.865 1.711,1.523c0.407,0.658 0.611,1.419 0.611,2.284c0,0.112 -0.076,0.181 -0.226,0.206l-2.199,0.132l-0.057,0c-0.112,0 -0.169,-0.031 -0.169,-0.094l0,-0.113c0,-0.664 -0.203,-1.197 -0.611,-1.598c-0.407,-0.401 -0.943,-0.601 -1.607,-0.601c-0.677,0 -1.219,0.2 -1.626,0.601c-0.407,0.401 -0.611,0.934 -0.611,1.598l0,4.53c0,0.652 0.204,1.178 0.611,1.579c0.407,0.401 0.949,0.602 1.626,0.602c0.664,0 1.2,-0.201 1.607,-0.602c0.408,-0.401 0.611,-0.927 0.611,-1.579c0,-0.138 0.075,-0.207 0.226,-0.207l2.199,0.094c0.15,0 0.226,0.032 0.226,0.094l0,0.094c0,0.865 -0.204,1.63 -0.611,2.294c-0.408,0.664 -0.978,1.178 -1.711,1.541c-0.733,0.363 -1.582,0.545 -2.547,0.545Z" style="fill:#484848;fill-rule:nonzero;"/><path d="M27.771,21.654c-0.978,0 -1.836,-0.191 -2.576,-0.573c-0.739,-0.382 -1.309,-0.918 -1.71,-1.607c-0.401,-0.69 -0.602,-1.485 -0.602,-2.388l0,-4.342c0,-0.902 0.201,-1.698 0.602,-2.387c0.401,-0.689 0.971,-1.222 1.71,-1.598c0.74,-0.376 1.598,-0.564 2.576,-0.564c0.965,0 1.814,0.179 2.547,0.536c0.733,0.357 1.303,0.865 1.71,1.523c0.407,0.658 0.611,1.419 0.611,2.284c0,0.112 -0.075,0.181 -0.225,0.206l-2.2,0.132l-0.056,0c-0.113,0 -0.169,-0.031 -0.169,-0.094l0,-0.113c0,-0.664 -0.204,-1.197 -0.611,-1.598c-0.407,-0.401 -0.943,-0.601 -1.607,-0.601c-0.677,0 -1.219,0.2 -1.626,0.601c-0.408,0.401 -0.611,0.934 -0.611,1.598l0,4.53c0,0.652 0.203,1.178 0.611,1.579c0.407,0.401 0.949,0.602 1.626,0.602c0.664,0 1.2,-0.201 1.607,-0.602c0.407,-0.401 0.611,-0.927 0.611,-1.579c0,-0.138 0.075,-0.207 0.225,-0.207l2.2,0.094c0.15,0 0.225,0.032 0.225,0.094l0,0.094c0,0.865 -0.204,1.63 -0.611,2.294c-0.407,0.664 -0.977,1.178 -1.71,1.541c-0.733,0.363 -1.582,0.545 -2.547,0.545Z" style="fill:#484848;fill-rule:nonzero;"/></g><path d="M126.35,0l0.082,0.001l0.083,0.001l0.082,0.003l0.083,0.003l0.082,0.005l0.082,0.005l0.082,0.007l0.081,0.008l0.082,0.008l0.081,0.01l0.081,0.01l0.081,0.012l0.081,0.012l0.08,0.014l0.08,0.014l0.08,0.016l0.08,0.016l0.08,0.018l0.079,0.018l0.079,0.02l0.079,0.02l0.078,0.021l0.078,0.022l0.078,0.023l0.077,0.025l0.078,0.025l0.077,0.026l0.076,0.026l0.076,0.028l0.076,0.029l0.076,0.03l0.075,0.03l0.074,0.032l0.075,0.032l0.074,0.033l0.073,0.035l0.073,0.035l0.073,0.036l0.072,0.037l0.072,0.037l0.072,0.039l0.071,0.04l0.07,0.04l0.07,0.041l0.07,0.043l0.069,0.043l0.068,0.044l0.068,0.044l0.068,0.046l0.067,0.046l0.066,0.048l0.066,0.048l0.066,0.049l0.064,0.05l0.065,0.05l0.063,0.052l0.064,0.052l0.062,0.054l0.062,0.054l0.061,0.054l0.061,0.056l0.06,0.056l0.059,0.058l0.059,0.058l0.058,0.059l0.058,0.059l0.056,0.06l0.056,0.061l0.054,0.061l0.054,0.062l0.054,0.062l0.052,0.064l0.052,0.063l0.05,0.064l0.05,0.065l0.049,0.066l0.048,0.066l0.048,0.066l0.046,0.067l0.046,0.068l0.044,0.068l0.044,0.068l0.043,0.069l0.043,0.07l0.041,0.07l0.04,0.07l0.04,0.071l0.039,0.072l0.037,0.071l0.037,0.073l0.036,0.072l0.035,0.074l0.035,0.073l0.033,0.074l0.032,0.074l0.032,0.075l0.03,0.075l0.03,0.076l0.029,0.076l0.028,0.076l0.026,0.076l0.026,0.077l0.025,0.078l0.025,0.077l0.023,0.078l0.022,0.078l0.021,0.078l0.02,0.079l0.02,0.079l0.018,0.079l0.018,0.08l0.016,0.08l0.016,0.08l0.014,0.08l0.014,0.08l0.012,0.081l0.012,0.081l0.01,0.081l0.01,0.081l0.008,0.082l0.008,0.081l0.007,0.082l0.005,0.082l0.005,0.082l0.003,0.083l0.003,0.082l0.001,0.082l0.001,0.083l0,16.7l-0.001,0.083l-0.001,0.082l-0.003,0.082l-0.003,0.083l-0.005,0.082l-0.005,0.082l-0.007,0.082l-0.008,0.081l-0.008,0.082l-0.01,0.081l-0.01,0.081l-0.012,0.081l-0.012,0.081l-0.014,0.08l-0.014,0.08l-0.016,0.08l-0.016,0.08l-0.018,0.08l-0.018,0.079l-0.02,0.079l-0.02,0.079l-0.021,0.078l-0.022,0.078l-0.023,0.078l-0.025,0.077l-0.025,0.078l-0.026,0.077l-0.026,0.076l-0.028,0.076l-0.029,0.076l-0.03,0.076l-0.03,0.075l-0.032,0.075l-0.032,0.074l-0.033,0.074l-0.035,0.073l-0.035,0.074l-0.036,0.072l-0.037,0.073l-0.037,0.071l-0.039,0.072l-0.04,0.071l-0.04,0.07l-0.041,0.07l-0.043,0.07l-0.043,0.069l-0.044,0.068l-0.044,0.068l-0.046,0.068l-0.046,0.067l-0.048,0.066l-0.048,0.066l-0.049,0.066l-0.05,0.065l-0.05,0.064l-0.052,0.063l-0.052,0.064l-0.054,0.062l-0.054,0.062l-0.054,0.061l-0.056,0.061l-0.056,0.06l-0.058,0.059l-0.058,0.059l-0.059,0.058l-0.059,0.058l-0.06,0.056l-0.061,0.056l-0.061,0.054l-0.062,0.054l-0.062,0.054l-0.064,0.052l-0.063,0.052l-0.065,0.05l-0.064,0.05l-0.066,0.049l-0.066,0.048l-0.066,0.048l-0.067,0.046l-0.068,0.046l-0.068,0.044l-0.068,0.044l-0.069,0.043l-0.07,0.043l-0.07,0.041l-0.07,0.04l-0.071,0.04l-0.072,0.039l-0.072,0.037l-0.072,0.037l-0.073,0.036l-0.073,0.035l-0.073,0.035l-0.074,0.033l-0.075,0.032l-0.074,0.032l-0.075,0.03l-0.076,0.03l-0.076,0.029l-0.076,0.028l-0.076,0.026l-0.077,0.026l-0.078,0.025l-0.077,0.025l-0.078,0.023l-0.078,0.022l-0.078,0.021l-0.079,0.02l-0.079,0.02l-0.079,0.018l-0.08,0.018l-0.08,0.016l-0.08,0.016l-0.08,0.014l-0.08,0.014l-0.081,0.012l-0.081,0.012l-0.081,0.01l-0.081,0.01l-0.082,0.008l-0.081,0.008l-0.082,0.007l-0.082,0.005l-0.082,0.005l-0.083,0.003l-0.082,0.003l-0.083,0.001l-0.082,0.001l-119.7,0l-0.082,-0.001l-0.083,-0.001l-0.082,-0.003l-0.083,-0.003l-0.082,-0.005l-0.082,-0.005l-0.082,-0.007l-0.081,-0.008l-0.082,-0.008l-0.081,-0.01l-0.081,-0.01l-0.081,-0.012l-0.081,-0.012l-0.08,-0.014l-0.08,-0.014l-0.08,-0.016l-0.08,-0.016l-0.08,-0.018l-0.079,-0.018l-0.079,-0.02l-0.079,-0.02l-0.078,-0.021l-0.078,-0.022l-0.078,-0.023l-0.077,-0.025l-0.078,-0.025l-0.077,-0.026l-0.076,-0.026l-0.076,-0.028l-0.076,-0.029l-0.076,-0.03l-0.075,-0.03l-0.074,-0.032l-0.075,-0.032l-0.074,-0.033l-0.073,-0.035l-0.073,-0.035l-0.073,-0.036l-0.072,-0.037l-0.072,-0.037l-0.072,-0.039l-0.071,-0.04l-0.07,-0.04l-0.07,-0.041l-0.07,-0.043l-0.069,-0.043l-0.068,-0.044l-0.068,-0.044l-0.068,-0.046l-0.067,-0.046l-0.066,-0.048l-0.066,-0.048l-0.066,-0.049l-0.064,-0.05l-0.065,-0.05l-0.063,-0.052l-0.064,-0.052l-0.062,-0.054l-0.062,-0.054l-0.061,-0.054l-0.061,-0.056l-0.06,-0.056l-0.059,-0.058l-0.059,-0.058l-0.058,-0.059l-0.058,-0.059l-0.056,-0.06l-0.056,-0.061l-0.054,-0.061l-0.054,-0.062l-0.054,-0.062l-0.052,-0.064l-0.052,-0.063l-0.05,-0.064l-0.05,-0.065l-0.049,-0.066l-0.048,-0.066l-0.048,-0.066l-0.046,-0.067l-0.046,-0.068l-0.044,-0.068l-0.044,-0.068l-0.043,-0.069l-0.043,-0.07l-0.041,-0.07l-0.04,-0.07l-0.04,-0.071l-0.039,-0.072l-0.037,-0.071l-0.037,-0.073l-0.036,-0.072l-0.035,-0.074l-0.035,-0.073l-0.033,-0.074l-0.032,-0.074l-0.032,-0.075l-0.03,-0.075l-0.03,-0.076l-0.029,-0.076l-0.028,-0.076l-0.026,-0.076l-0.026,-0.077l-0.025,-0.078l-0.025,-0.077l-0.023,-0.078l-0.022,-0.078l-0.021,-0.078l-0.02,-0.079l-0.02,-0.079l-0.018,-0.079l-0.018,-0.08l-0.016,-0.08l-0.016,-0.08l-0.014,-0.08l-0.014,-0.08l-0.012,-0.081l-0.012,-0.081l-0.01,-0.081l-0.01,-0.081l-0.008,-0.082l-0.008,-0.081l-0.007,-0.082l-0.005,-0.082l-0.005,-0.082l-0.003,-0.083l-0.003,-0.082l-0.001,-0.082l-0.001,-0.083l0,-16.7l0.001,-0.083l0.001,-0.082l0.003,-0.082l0.003,-0.083l0.005,-0.082l0.005,-0.082l0.007,-0.082l0.008,-0.081l0.008,-0.082l0.01,-0.081l0.01,-0.081l0.012,-0.081l0.012,-0.081l0.014,-0.08l0.014,-0.08l0.016,-0.08l0.016,-0.08l0.018,-0.08l0.018,-0.079l0.02,-0.079l0.02,-0.079l0.021,-0.078l0.022,-0.078l0.023,-0.078l0.025,-0.077l0.025,-0.078l0.026,-0.077l0.026,-0.076l0.028,-0.076l0.029,-0.076l0.03,-0.076l0.03,-0.075l0.032,-0.075l0.032,-0.074l0.033,-0.074l0.035,-0.073l0.035,-0.074l0.036,-0.072l0.037,-0.073l0.037,-0.071l0.039,-0.072l0.04,-0.071l0.04,-0.07l0.041,-0.07l0.043,-0.07l0.043,-0.069l0.044,-0.068l0.044,-0.068l0.046,-0.068l0.046,-0.067l0.048,-0.066l0.048,-0.066l0.049,-0.066l0.05,-0.065l0.05,-0.064l0.052,-0.063l0.052,-0.064l0.054,-0.062l0.054,-0.062l0.054,-0.061l0.056,-0.061l0.056,-0.06l0.058,-0.059l0.058,-0.059l0.059,-0.058l0.059,-0.058l0.06,-0.056l0.061,-0.056l0.061,-0.054l0.062,-0.054l0.062,-0.054l0.064,-0.052l0.063,-0.052l0.065,-0.05l0.064,-0.05l0.066,-0.049l0.066,-0.048l0.066,-0.048l0.067,-0.046l0.068,-0.046l0.068,-0.044l0.068,-0.044l0.069,-0.043l0.07,-0.043l0.07,-0.041l0.07,-0.04l0.071,-0.04l0.072,-0.039l0.072,-0.037l0.072,-0.037l0.073,-0.036l0.073,-0.035l0.073,-0.035l0.074,-0.033l0.075,-0.032l0.074,-0.032l0.075,-0.03l0.076,-0.03l0.076,-0.029l0.076,-0.028l0.076,-0.026l0.077,-0.026l0.078,-0.025l0.077,-0.025l0.078,-0.023l0.078,-0.022l0.078,-0.021l0.079,-0.02l0.079,-0.02l0.079,-0.018l0.08,-0.018l0.08,-0.016l0.08,-0.016l0.08,-0.014l0.08,-0.014l0.081,-0.012l0.081,-0.012l0.081,-0.01l0.081,-0.01l0.082,-0.008l0.081,-0.008l0.082,-0.007l0.082,-0.005l0.082,-0.005l0.083,-0.003l0.082,-0.003l0.083,-0.001l0.082,-0.001l119.7,0Zm-119.758,2l-0.057,0.001l-0.058,0.002l-0.058,0.003l-0.057,0.003l-0.057,0.004l-0.057,0.004l-0.058,0.006l-0.057,0.006l-0.056,0.007l-0.057,0.007l-0.057,0.008l-0.056,0.009l-0.056,0.009l-0.056,0.01l-0.056,0.011l-0.056,0.012l-0.056,0.012l-0.055,0.013l-0.055,0.013l-0.055,0.014l-0.055,0.015l-0.055,0.016l-0.054,0.016l-0.054,0.017l-0.054,0.017l-0.054,0.019l-0.054,0.018l-0.053,0.02l-0.053,0.02l-0.053,0.021l-0.052,0.021l-0.053,0.022l-0.052,0.023l-0.051,0.023l-0.052,0.024l-0.051,0.024l-0.051,0.026l-0.05,0.025l-0.051,0.027l-0.05,0.027l-0.049,0.028l-0.049,0.028l-0.049,0.029l-0.049,0.029l-0.048,0.03l-0.048,0.031l-0.048,0.031l-0.047,0.032l-0.047,0.033l-0.046,0.033l-0.046,0.033l-0.046,0.035l-0.045,0.035l-0.045,0.035l-0.045,0.036l-0.044,0.037l-0.044,0.037l-0.043,0.038l-0.043,0.038l-0.042,0.039l-0.042,0.039l-0.042,0.04l-0.041,0.041l-0.041,0.041l-0.04,0.042l-0.039,0.042l-0.039,0.042l-0.038,0.043l-0.038,0.043l-0.037,0.044l-0.037,0.044l-0.036,0.045l-0.035,0.045l-0.035,0.045l-0.035,0.046l-0.033,0.046l-0.033,0.046l-0.033,0.047l-0.032,0.047l-0.031,0.048l-0.031,0.048l-0.03,0.048l-0.029,0.049l-0.029,0.049l-0.028,0.049l-0.028,0.05l-0.027,0.049l-0.027,0.051l-0.025,0.05l-0.025,0.051l-0.025,0.051l-0.024,0.052l-0.023,0.051l-0.023,0.052l-0.022,0.053l-0.021,0.052l-0.021,0.053l-0.02,0.053l-0.02,0.053l-0.018,0.054l-0.019,0.054l-0.017,0.054l-0.017,0.054l-0.016,0.054l-0.016,0.055l-0.015,0.055l-0.014,0.055l-0.013,0.055l-0.013,0.056l-0.012,0.055l-0.012,0.056l-0.011,0.056l-0.01,0.056l-0.009,0.056l-0.009,0.056l-0.008,0.057l-0.008,0.057l-0.006,0.056l-0.006,0.057l-0.005,0.057l-0.005,0.058l-0.004,0.057l-0.003,0.057l-0.003,0.058l-0.002,0.058l-0.001,0.057l0,0.064l0,16.688l0,0.064l0.001,0.057l0.002,0.058l0.003,0.058l0.003,0.057l0.004,0.057l0.005,0.058l0.005,0.057l0.006,0.057l0.006,0.056l0.008,0.057l0.008,0.057l0.009,0.056l0.009,0.056l0.01,0.056l0.011,0.056l0.012,0.056l0.012,0.055l0.013,0.056l0.013,0.055l0.014,0.055l0.015,0.055l0.016,0.055l0.016,0.054l0.017,0.054l0.017,0.054l0.019,0.054l0.018,0.054l0.02,0.053l0.02,0.053l0.021,0.053l0.021,0.052l0.022,0.053l0.023,0.052l0.023,0.051l0.024,0.052l0.025,0.051l0.025,0.051l0.025,0.05l0.027,0.051l0.027,0.049l0.028,0.05l0.028,0.049l0.029,0.049l0.029,0.049l0.03,0.048l0.031,0.048l0.031,0.048l0.032,0.047l0.033,0.047l0.033,0.046l0.033,0.046l0.035,0.046l0.035,0.045l0.035,0.045l0.036,0.045l0.037,0.044l0.037,0.044l0.038,0.043l0.038,0.043l0.039,0.042l0.039,0.042l0.04,0.042l0.041,0.041l0.041,0.041l0.042,0.04l0.042,0.039l0.042,0.039l0.043,0.038l0.043,0.038l0.044,0.037l0.044,0.037l0.045,0.036l0.045,0.035l0.045,0.035l0.046,0.035l0.046,0.033l0.046,0.033l0.047,0.033l0.047,0.032l0.048,0.031l0.048,0.031l0.048,0.03l0.049,0.029l0.049,0.029l0.049,0.028l0.049,0.028l0.05,0.027l0.051,0.027l0.05,0.025l0.051,0.026l0.051,0.024l0.052,0.024l0.051,0.023l0.052,0.023l0.053,0.022l0.052,0.021l0.053,0.021l0.053,0.02l0.053,0.02l0.054,0.018l0.054,0.019l0.054,0.017l0.054,0.017l0.054,0.016l0.055,0.016l0.055,0.015l0.055,0.014l0.055,0.013l0.055,0.013l0.056,0.012l0.056,0.012l0.056,0.011l0.056,0.01l0.056,0.009l0.056,0.009l0.057,0.008l0.057,0.007l0.056,0.007l0.057,0.006l0.058,0.006l0.057,0.004l0.057,0.004l0.057,0.003l0.058,0.003l0.058,0.002l0.057,0.001l0.064,0l119.688,0l0.064,0l0.057,-0.001l0.058,-0.002l0.058,-0.003l0.057,-0.003l0.057,-0.004l0.057,-0.004l0.058,-0.006l0.056,-0.006l0.057,-0.007l0.057,-0.007l0.057,-0.008l0.056,-0.009l0.056,-0.009l0.056,-0.01l0.056,-0.011l0.056,-0.012l0.056,-0.012l0.055,-0.013l0.055,-0.013l0.055,-0.014l0.055,-0.015l0.055,-0.016l0.054,-0.016l0.054,-0.017l0.054,-0.017l0.054,-0.018l0.054,-0.019l0.053,-0.02l0.053,-0.02l0.053,-0.021l0.052,-0.021l0.053,-0.022l0.052,-0.023l0.051,-0.023l0.052,-0.024l0.051,-0.024l0.051,-0.026l0.05,-0.025l0.051,-0.027l0.05,-0.027l0.049,-0.028l0.049,-0.028l0.049,-0.029l0.049,-0.029l0.048,-0.03l0.048,-0.031l0.048,-0.031l0.047,-0.032l0.047,-0.033l0.046,-0.033l0.046,-0.033l0.046,-0.035l0.045,-0.035l0.045,-0.035l0.045,-0.036l0.044,-0.037l0.044,-0.037l0.043,-0.038l0.043,-0.038l0.042,-0.039l0.042,-0.039l0.042,-0.04l0.041,-0.041l0.041,-0.041l0.04,-0.042l0.039,-0.042l0.039,-0.042l0.038,-0.043l0.038,-0.043l0.037,-0.044l0.037,-0.044l0.036,-0.045l0.035,-0.045l0.035,-0.045l0.035,-0.046l0.033,-0.046l0.033,-0.046l0.033,-0.047l0.032,-0.047l0.031,-0.048l0.031,-0.048l0.03,-0.048l0.029,-0.049l0.029,-0.049l0.028,-0.049l0.028,-0.049l0.027,-0.051l0.027,-0.05l0.025,-0.05l0.026,-0.051l0.024,-0.051l0.024,-0.052l0.023,-0.051l0.023,-0.052l0.022,-0.052l0.021,-0.053l0.021,-0.053l0.02,-0.053l0.02,-0.053l0.019,-0.054l0.018,-0.053l0.017,-0.054l0.017,-0.055l0.016,-0.054l0.016,-0.055l0.015,-0.055l0.014,-0.055l0.013,-0.055l0.013,-0.055l0.012,-0.056l0.012,-0.056l0.011,-0.056l0.01,-0.056l0.009,-0.056l0.009,-0.056l0.008,-0.057l0.007,-0.057l0.007,-0.057l0.006,-0.056l0.006,-0.057l0.004,-0.058l0.004,-0.057l0.003,-0.057l0.003,-0.058l0.002,-0.058l0.001,-0.057l0,-0.064l0,-16.688l0,-0.064l-0.001,-0.057l-0.002,-0.058l-0.003,-0.058l-0.003,-0.057l-0.004,-0.057l-0.004,-0.058l-0.006,-0.057l-0.006,-0.056l-0.007,-0.057l-0.007,-0.057l-0.008,-0.057l-0.009,-0.056l-0.009,-0.056l-0.01,-0.056l-0.011,-0.056l-0.012,-0.056l-0.012,-0.056l-0.013,-0.055l-0.013,-0.055l-0.014,-0.055l-0.015,-0.055l-0.016,-0.055l-0.016,-0.054l-0.017,-0.055l-0.017,-0.054l-0.018,-0.053l-0.019,-0.054l-0.02,-0.053l-0.02,-0.053l-0.021,-0.053l-0.021,-0.053l-0.022,-0.052l-0.023,-0.052l-0.023,-0.051l-0.024,-0.052l-0.024,-0.051l-0.026,-0.051l-0.025,-0.05l-0.027,-0.05l-0.027,-0.051l-0.028,-0.049l-0.028,-0.049l-0.029,-0.049l-0.029,-0.049l-0.03,-0.048l-0.031,-0.048l-0.031,-0.048l-0.032,-0.047l-0.033,-0.047l-0.033,-0.046l-0.033,-0.046l-0.035,-0.046l-0.035,-0.045l-0.035,-0.045l-0.036,-0.045l-0.037,-0.044l-0.037,-0.044l-0.038,-0.043l-0.038,-0.043l-0.039,-0.042l-0.039,-0.042l-0.04,-0.042l-0.041,-0.041l-0.041,-0.041l-0.042,-0.04l-0.042,-0.039l-0.042,-0.039l-0.043,-0.038l-0.043,-0.038l-0.044,-0.037l-0.044,-0.037l-0.045,-0.036l-0.045,-0.035l-0.045,-0.035l-0.046,-0.035l-0.046,-0.033l-0.046,-0.033l-0.047,-0.033l-0.047,-0.032l-0.048,-0.031l-0.048,-0.031l-0.048,-0.03l-0.049,-0.029l-0.049,-0.029l-0.049,-0.028l-0.049,-0.028l-0.05,-0.027l-0.051,-0.027l-0.05,-0.025l-0.051,-0.026l-0.051,-0.024l-0.052,-0.024l-0.051,-0.023l-0.052,-0.023l-0.053,-0.022l-0.052,-0.021l-0.053,-0.021l-0.053,-0.02l-0.053,-0.02l-0.054,-0.018l-0.054,-0.019l-0.054,-0.017l-0.054,-0.017l-0.054,-0.016l-0.055,-0.016l-0.055,-0.015l-0.055,-0.014l-0.055,-0.013l-0.055,-0.013l-0.056,-0.012l-0.056,-0.012l-0.056,-0.011l-0.056,-0.01l-0.056,-0.009l-0.056,-0.009l-0.057,-0.008l-0.057,-0.007l-0.057,-0.007l-0.056,-0.006l-0.058,-0.006l-0.057,-0.004l-0.057,-0.004l-0.057,-0.003l-0.058,-0.003l-0.058,-0.002l-0.057,-0.001l-0.064,0l-119.688,0l-0.064,0Z"/><path d="M51.868,14.654c-0.073,0.037 -0.073,0.073 0,0.11c1.237,0.582 1.855,1.582 1.855,3.001c0,1.152 -0.385,2.028 -1.155,2.629c-0.77,0.6 -1.774,0.9 -3.011,0.9l-4.584,0c-0.061,0 -0.112,-0.021 -0.155,-0.063c-0.042,-0.043 -0.063,-0.094 -0.063,-0.155l0,-12.298c0,-0.06 0.021,-0.112 0.063,-0.154c0.043,-0.043 0.094,-0.064 0.155,-0.064l4.439,0c1.322,0 2.34,0.285 3.056,0.855c0.715,0.57 1.073,1.431 1.073,2.583c0,1.274 -0.558,2.159 -1.673,2.656Zm-4.912,-4.275c-0.061,0 -0.091,0.031 -0.091,0.091l0,3.366c0,0.06 0.03,0.091 0.091,0.091l2.456,0c0.642,0 1.149,-0.155 1.519,-0.464c0.37,-0.309 0.555,-0.737 0.555,-1.283c0,-0.558 -0.185,-0.997 -0.555,-1.319c-0.37,-0.321 -0.877,-0.482 -1.519,-0.482l-2.456,0Zm2.601,9.078c0.631,0 1.131,-0.17 1.501,-0.509c0.37,-0.34 0.555,-0.801 0.555,-1.383c0,-0.594 -0.188,-1.058 -0.564,-1.392c-0.376,-0.333 -0.885,-0.5 -1.528,-0.5l-2.565,0c-0.061,0 -0.091,0.03 -0.091,0.091l0,3.602c0,0.061 0.03,0.091 0.091,0.091l2.601,0Z" style="fill:#fff;fill-rule:nonzero;"/><path d="M58.762,21.276c-0.06,0 -0.112,-0.021 -0.154,-0.064c-0.043,-0.042 -0.064,-0.094 -0.064,-0.154l0,-4.876c0,-0.048 -0.006,-0.084 -0.018,-0.109l-3.748,-7.258c-0.024,-0.049 -0.036,-0.085 -0.036,-0.109c0,-0.097 0.067,-0.146 0.2,-0.146l1.801,0c0.121,0 0.206,0.055 0.255,0.164l2.546,5.075c0.037,0.049 0.073,0.049 0.11,0l2.565,-5.075c0.06,-0.109 0.145,-0.164 0.254,-0.164l1.819,0c0.085,0 0.143,0.024 0.173,0.073c0.031,0.048 0.028,0.109 -0.009,0.182l-3.765,7.258c-0.025,0.049 -0.037,0.085 -0.037,0.109l0,4.876c0,0.06 -0.021,0.112 -0.064,0.154c-0.042,0.043 -0.094,0.064 -0.154,0.064l-1.674,0Z" style="fill:#fff;fill-rule:nonzero;"/><path d="M64.529,16.728c-0.061,0 -0.112,-0.021 -0.155,-0.063c-0.042,-0.043 -0.063,-0.094 -0.063,-0.155l0,-1.383c0,-0.06 0.021,-0.112 0.063,-0.154c0.043,-0.043 0.094,-0.064 0.155,-0.064l5.73,0c0.061,0 0.112,0.021 0.155,0.064c0.042,0.042 0.064,0.094 0.064,0.154l0,1.383c0,0.061 -0.022,0.112 -0.064,0.155c-0.043,0.042 -0.094,0.063 -0.155,0.063l-5.73,0Z" style="fill:#fff;fill-rule:nonzero;"/><path d="M79.81,8.778c0,-0.06 0.021,-0.112 0.064,-0.154c0.042,-0.043 0.094,-0.064 0.154,-0.064l1.674,0c0.06,0 0.112,0.021 0.154,0.064c0.043,0.042 0.064,0.094 0.064,0.154l0,12.298c0,0.061 -0.021,0.112 -0.064,0.155c-0.042,0.042 -0.094,0.063 -0.154,0.063l-1.619,0c-0.122,0 -0.206,-0.048 -0.255,-0.145l-5.239,-8.587c-0.024,-0.036 -0.049,-0.051 -0.073,-0.045c-0.024,0.006 -0.036,0.033 -0.036,0.082l0.036,8.477c0,0.061 -0.021,0.112 -0.064,0.155c-0.042,0.042 -0.094,0.063 -0.154,0.063l-1.674,0c-0.06,0 -0.112,-0.021 -0.154,-0.063c-0.043,-0.043 -0.064,-0.094 -0.064,-0.155l0,-12.298c0,-0.06 0.021,-0.112 0.064,-0.154c0.042,-0.043 0.094,-0.064 0.154,-0.064l1.619,0c0.122,0 0.206,0.049 0.255,0.146l5.221,8.586c0.024,0.037 0.048,0.052 0.073,0.046c0.024,-0.006 0.036,-0.034 0.036,-0.082l-0.018,-8.478Z" style="fill:#fff;fill-rule:nonzero;"/><path d="M88.833,21.44c-0.91,0 -1.71,-0.179 -2.401,-0.537c-0.692,-0.358 -1.225,-0.858 -1.601,-1.501c-0.376,-0.642 -0.564,-1.388 -0.564,-2.237l0,-4.494c0,-0.848 0.188,-1.594 0.564,-2.237c0.376,-0.643 0.909,-1.14 1.601,-1.492c0.691,-0.351 1.491,-0.527 2.401,-0.527c0.897,0 1.692,0.169 2.383,0.509c0.691,0.34 1.225,0.819 1.601,1.437c0.376,0.619 0.564,1.334 0.564,2.147c0,0.06 -0.021,0.112 -0.064,0.154c-0.042,0.043 -0.094,0.064 -0.155,0.064l-1.673,0.091c-0.146,0 -0.218,-0.03 -0.218,-0.091l0,-0.109c0,-0.716 -0.222,-1.292 -0.664,-1.728c-0.443,-0.437 -1.034,-0.655 -1.774,-0.655c-0.74,0 -1.334,0.218 -1.783,0.655c-0.449,0.436 -0.673,1.012 -0.673,1.728l0,4.639c0,0.703 0.224,1.273 0.673,1.71c0.449,0.436 1.043,0.655 1.783,0.655c0.74,0 1.331,-0.216 1.774,-0.646c0.442,-0.431 0.664,-1.004 0.664,-1.719c0,-0.134 0.072,-0.2 0.218,-0.2l1.673,0.072c0.146,0 0.219,0.031 0.219,0.091l0,0.091c0,0.825 -0.188,1.55 -0.564,2.174c-0.376,0.625 -0.91,1.107 -1.601,1.446c-0.691,0.34 -1.486,0.51 -2.383,0.51Z" style="fill:#fff;fill-rule:nonzero;"/><path d="M95.091,16.728c-0.061,0 -0.112,-0.021 -0.155,-0.063c-0.042,-0.043 -0.064,-0.094 -0.064,-0.155l0,-1.383c0,-0.06 0.022,-0.112 0.064,-0.154c0.043,-0.043 0.094,-0.064 0.155,-0.064l5.73,0c0.061,0 0.112,0.021 0.155,0.064c0.042,0.042 0.063,0.094 0.063,0.154l0,1.383c0,0.061 -0.021,0.112 -0.063,0.155c-0.043,0.042 -0.094,0.063 -0.155,0.063l-5.73,0Z" style="fill:#fff;fill-rule:nonzero;"/><path d="M107.079,21.44c-0.946,0 -1.771,-0.152 -2.474,-0.455c-0.703,-0.303 -1.246,-0.728 -1.628,-1.273c-0.382,-0.546 -0.573,-1.189 -0.573,-1.929l0,-0.454c0,-0.061 0.021,-0.113 0.063,-0.155c0.043,-0.043 0.094,-0.064 0.155,-0.064l1.619,0c0.061,0 0.112,0.021 0.155,0.064c0.042,0.042 0.063,0.094 0.063,0.155l0,0.345c0,0.558 0.249,1.022 0.746,1.392c0.498,0.37 1.177,0.555 2.038,0.555c0.74,0 1.297,-0.158 1.673,-0.473c0.376,-0.316 0.564,-0.722 0.564,-1.219c0,-0.34 -0.103,-0.628 -0.309,-0.864c-0.206,-0.237 -0.5,-0.452 -0.882,-0.646c-0.382,-0.194 -0.955,-0.437 -1.719,-0.728c-0.861,-0.315 -1.559,-0.612 -2.092,-0.891c-0.534,-0.279 -0.98,-0.658 -1.337,-1.137c-0.358,-0.479 -0.537,-1.076 -0.537,-1.792c0,-1.067 0.388,-1.91 1.164,-2.529c0.776,-0.618 1.813,-0.927 3.111,-0.927c0.91,0 1.713,0.157 2.41,0.473c0.698,0.315 1.24,0.755 1.628,1.319c0.389,0.563 0.583,1.215 0.583,1.955l0,0.309c0,0.061 -0.022,0.113 -0.064,0.155c-0.043,0.042 -0.094,0.064 -0.155,0.064l-1.637,0c-0.061,0 -0.112,-0.022 -0.155,-0.064c-0.042,-0.042 -0.063,-0.094 -0.063,-0.155l0,-0.2c0,-0.57 -0.234,-1.052 -0.701,-1.446c-0.467,-0.394 -1.112,-0.591 -1.937,-0.591c-0.667,0 -1.186,0.139 -1.555,0.418c-0.37,0.279 -0.555,0.673 -0.555,1.183c0,0.363 0.097,0.661 0.291,0.891c0.194,0.23 0.485,0.44 0.873,0.628c0.388,0.188 0.988,0.427 1.801,0.718c0.861,0.328 1.549,0.625 2.065,0.892c0.515,0.266 0.958,0.639 1.328,1.118c0.37,0.479 0.555,1.077 0.555,1.792c0,1.092 -0.404,1.959 -1.21,2.602c-0.807,0.642 -1.907,0.964 -3.302,0.964Z" style="fill:#fff;fill-rule:nonzero;"/><path d="M121.614,21.294c-0.121,0 -0.2,-0.06 -0.236,-0.182l-0.601,-1.946c-0.024,-0.049 -0.054,-0.073 -0.091,-0.073l-4.802,0c-0.037,0 -0.067,0.024 -0.091,0.073l-0.601,1.946c-0.036,0.122 -0.115,0.182 -0.236,0.182l-1.819,0c-0.073,0 -0.128,-0.021 -0.164,-0.063c-0.036,-0.043 -0.042,-0.107 -0.018,-0.191l3.947,-12.298c0.037,-0.121 0.116,-0.182 0.237,-0.182l2.274,0c0.121,0 0.2,0.061 0.236,0.182l3.966,12.298c0.012,0.024 0.018,0.054 0.018,0.091c0,0.109 -0.066,0.163 -0.2,0.163l-1.819,0Zm-5.257,-3.965c-0.012,0.072 0.012,0.109 0.073,0.109l3.692,0c0.073,0 0.097,-0.037 0.073,-0.109l-1.874,-6.095c-0.012,-0.048 -0.03,-0.072 -0.054,-0.072c-0.024,0 -0.043,0.024 -0.055,0.072l-1.855,6.095Z" style="fill:#fff;fill-rule:nonzero;"/></g></svg>