<svg width="755" height="717" viewBox="0 0 755 717" fill="none" xmlns="http://www.w3.org/2000/svg">
<g clip-path="url(#clip0)">
<path d="M749.021 643.423C749.021 656.81 745.522 666.312 740.063 673.238C734.552 680.231 726.626 685.126 716.9 688.502C697.165 695.353 671.775 695.418 649.05 695.418C626.333 695.418 600.59 695.355 580.506 688.493C570.598 685.107 562.505 680.198 556.877 673.195C551.311 666.267 547.746 656.78 547.746 643.423C547.746 618.448 553.125 588.051 568.459 564.103C583.564 540.51 608.525 522.795 649.05 522.795C687.463 522.795 712.147 540.541 727.487 564.317C743.02 588.392 749.021 618.823 749.021 643.423Z" fill="#FBC546" stroke="black" stroke-width="11.9508"/>
<path fill-rule="evenodd" clip-rule="evenodd" d="M614.095 606.495L597.859 590.259C595.642 588.042 595.642 584.438 597.859 582.22C600.076 580.003 603.68 580.003 605.897 582.22L635.141 611.464L603.674 621.953C600.701 622.947 597.478 621.333 596.483 618.36C595.494 615.381 597.103 612.157 600.082 611.168L614.095 606.495ZM680.62 606.495L694.634 611.168C697.612 612.157 699.221 615.381 698.232 618.36C697.237 621.333 694.014 622.947 691.041 621.953L659.574 611.464L688.818 582.22C691.035 580.003 694.639 580.003 696.856 582.22C699.073 584.438 699.073 588.042 696.856 590.259L680.62 606.495Z" fill="black"/>
<path fill-rule="evenodd" clip-rule="evenodd" d="M612.03 663.427C601.206 656.321 592.746 646.224 589.574 634.564H705.149C701.977 646.224 693.518 656.321 682.694 663.427C676.349 656.088 618.374 656.088 612.03 663.427Z" fill="#722245"/>
<path fill-rule="evenodd" clip-rule="evenodd" d="M612.024 663.427C618.369 656.088 627.709 651.619 637.834 651.619C644.031 651.619 650.682 651.619 656.879 651.619C667.003 651.619 676.344 656.088 682.688 663.427C672.239 670.288 659.585 674.359 647.356 674.359C635.128 674.359 622.473 670.288 612.024 663.427Z" fill="#CA3B8F"/>
</g>
<g clip-path="url(#clip1)">
<path d="M212.562 636.784C212.562 650.171 209.063 659.673 203.604 666.599C198.093 673.592 190.167 678.487 180.441 681.863C160.706 688.714 135.316 688.779 112.591 688.779C89.8737 688.779 64.1311 688.716 44.047 681.854C34.1387 678.468 26.0458 673.559 20.4185 666.555C14.8524 659.628 11.2869 650.141 11.2869 636.784C11.2869 611.809 16.6663 581.412 31.9996 557.464C47.1054 533.871 72.0662 516.156 112.591 516.156C151.004 516.156 175.688 533.902 191.028 557.677C206.561 581.753 212.562 612.183 212.562 636.784Z" fill="#FBC546" stroke="black" stroke-width="11.9508"/>
<path fill-rule="evenodd" clip-rule="evenodd" d="M53.4599 596.034C54.523 597.097 55.967 597.694 57.4735 597.694C58.98 597.694 60.424 597.097 61.487 596.034C61.5098 596.011 61.5268 596 61.5268 596C64.9833 592.544 69.6677 590.599 74.5567 590.599C79.4458 590.599 84.1302 592.544 87.5866 596C87.5866 596 87.6037 596.011 87.6264 596.034C88.6895 597.097 90.1335 597.694 91.64 597.694C93.1465 597.694 94.5905 597.097 95.6535 596.034C95.6592 596.034 95.6592 596.028 95.6592 596.028C97.882 593.811 97.882 590.207 95.6592 587.99C95.6422 587.967 95.6308 587.956 95.6308 587.956C90.0425 582.368 82.4588 579.229 74.5567 579.229C66.6547 579.229 59.0709 582.368 53.4826 587.956C53.4826 587.956 53.4713 587.967 53.4542 587.99C51.2314 590.207 51.2314 593.811 53.4542 596.028C53.4542 596.028 53.4542 596.034 53.4599 596.034Z" fill="black"/>
<path fill-rule="evenodd" clip-rule="evenodd" d="M169.558 596.034C168.495 597.097 167.051 597.694 165.544 597.694C164.038 597.694 162.594 597.097 161.531 596.034C161.508 596.011 161.491 596 161.491 596C158.034 592.544 153.35 590.599 148.461 590.599C143.572 590.599 138.888 592.544 135.431 596C135.431 596 135.414 596.011 135.391 596.034C134.328 597.097 132.884 597.694 131.378 597.694C129.871 597.694 128.427 597.097 127.364 596.034C127.359 596.034 127.359 596.028 127.359 596.028C125.136 593.811 125.136 590.207 127.359 587.99C127.376 587.967 127.387 587.956 127.387 587.956C132.975 582.368 140.559 579.229 148.461 579.229C156.363 579.229 163.947 582.368 169.535 587.956C169.535 587.956 169.546 587.967 169.564 587.99C171.786 590.207 171.786 593.811 169.564 596.028C169.564 596.028 169.564 596.034 169.558 596.034Z" fill="black"/>
<path fill-rule="evenodd" clip-rule="evenodd" d="M167.22 623.049C161.956 644.232 139 660.196 111.513 660.196C84.0267 660.196 61.0709 644.232 55.8066 623.049H167.22Z" stroke="#7E5108" stroke-width="11.3699" stroke-miterlimit="3"/>
<path fill-rule="evenodd" clip-rule="evenodd" d="M166.638 625.153C164.176 633.135 159.179 640.295 152.386 646.03C149.276 643.323 74.2235 643.095 71.0286 645.705C70.8978 645.811 70.7727 645.918 70.6477 646.03C63.8542 640.291 58.8571 633.131 56.3955 625.153C62.7683 632.559 160.265 632.559 166.638 625.153Z" fill="#7E5108"/>
<path fill-rule="evenodd" clip-rule="evenodd" d="M70.6443 646.024C70.7694 645.913 70.8945 645.806 71.0252 645.699C74.2202 643.09 78.5578 642.95 83.0773 642.95C99.3306 642.95 123.679 642.95 139.938 642.95C144.844 642.95 149.273 643.317 152.382 646.024C142.042 654.763 127.551 660.196 111.513 660.196C95.4762 660.196 80.9796 654.758 70.6443 646.024ZM56.3922 625.148C56.1762 624.456 55.9829 623.755 55.8066 623.049H167.22C167.044 623.755 166.851 624.456 166.635 625.148C160.262 632.554 149.882 638.984 138.763 638.984C122.936 638.984 100.139 638.984 84.3122 638.984C73.1925 638.984 62.765 632.554 56.3922 625.148Z" fill="white"/>
</g>
<g clip-path="url(#clip2)">
<path d="M479.464 643.423C479.464 656.81 475.964 666.312 470.505 673.238C464.994 680.231 457.068 685.126 447.342 688.502C427.607 695.353 402.218 695.418 379.492 695.418C356.775 695.418 331.033 695.355 310.948 688.493C301.04 685.107 292.947 680.198 287.32 673.195C281.754 666.267 278.188 656.78 278.188 643.423C278.188 618.448 283.568 588.051 298.901 564.103C314.007 540.51 338.968 522.795 379.492 522.795C417.905 522.795 442.59 540.541 457.929 564.317C473.462 588.392 479.464 618.823 479.464 643.423Z" fill="#FBC546" stroke="black" stroke-width="11.9508"/>
<path fill-rule="evenodd" clip-rule="evenodd" d="M425.457 540.21C430.456 543.212 435.18 546.72 439.546 550.719C452.522 562.579 461.551 577.962 465.657 594.798C462.929 595.597 460.097 596.069 457.217 596.198C447.73 596.622 438.46 593.263 431.452 586.855C431.452 586.855 431.452 586.848 431.445 586.849C420.093 576.461 416.652 559.975 422.914 545.921L425.457 540.21Z" fill="#E59A10"/>
<path fill-rule="evenodd" clip-rule="evenodd" d="M454.075 511.508C454.075 511.508 442.183 535.293 434.162 551.335C429.884 559.89 431.563 570.219 438.324 576.981C438.324 576.981 438.324 576.981 438.331 576.988C442.507 581.164 448.166 583.506 454.075 583.506C459.984 583.506 465.643 581.164 469.819 576.988C469.826 576.981 469.826 576.981 469.826 576.981C476.587 570.219 478.266 559.89 473.988 551.335C465.967 535.293 454.075 511.508 454.075 511.508Z" fill="#2AC2F9"/>
<path fill-rule="evenodd" clip-rule="evenodd" d="M325.677 588.207C326.74 589.27 328.184 589.873 329.691 589.873C331.197 589.867 332.641 589.27 333.704 588.207C333.721 588.19 333.733 588.178 333.733 588.178C336.433 585.478 340.1 583.96 343.92 583.96C347.74 583.96 351.407 585.478 354.107 588.178C354.107 588.178 354.119 588.19 354.136 588.207C355.199 589.27 356.643 589.867 358.149 589.873C359.656 589.873 361.1 589.27 362.163 588.207C362.169 588.207 362.169 588.201 362.169 588.201C363.237 587.138 363.834 585.688 363.834 584.182C363.834 582.675 363.237 581.231 362.169 580.163C362.152 580.146 362.146 580.14 362.146 580.14C357.314 575.308 350.753 572.59 343.92 572.59C337.087 572.59 330.526 575.308 325.694 580.14C325.694 580.14 325.683 580.151 325.666 580.168C324.603 581.231 324 582.675 324 584.182C324 585.688 324.603 587.132 325.666 588.195C325.671 588.201 325.671 588.201 325.677 588.207Z" fill="black"/>
<path fill-rule="evenodd" clip-rule="evenodd" d="M430.377 588.207C429.314 589.27 427.87 589.873 426.363 589.873C424.857 589.867 423.413 589.27 422.35 588.207C422.333 588.19 422.321 588.178 422.321 588.178C419.621 585.478 415.954 583.96 412.134 583.96C408.314 583.96 404.647 585.478 401.947 588.178C401.947 588.178 401.935 588.19 401.918 588.207C400.855 589.27 399.411 589.867 397.905 589.873C396.398 589.873 394.954 589.27 393.891 588.207C393.885 588.207 393.885 588.201 393.885 588.201C392.817 587.138 392.22 585.688 392.22 584.182C392.22 582.675 392.817 581.231 393.885 580.163C393.902 580.146 393.908 580.14 393.908 580.14C398.74 575.308 405.301 572.59 412.134 572.59C418.967 572.59 425.528 575.308 430.36 580.14C430.36 580.14 430.371 580.151 430.388 580.168C431.452 581.231 432.054 582.675 432.054 584.182C432.054 585.688 431.452 587.132 430.388 588.195C430.383 588.201 430.383 588.201 430.377 588.207Z" fill="black"/>
<path fill-rule="evenodd" clip-rule="evenodd" d="M343.855 643.016C332.439 633.67 324.913 619.748 324.1 604.057H431.966C431.153 619.748 423.626 633.67 412.211 643.016C405.917 636.439 350.148 636.439 343.855 643.016Z" fill="#722245"/>
<path fill-rule="evenodd" clip-rule="evenodd" d="M343.854 643.016C350.147 636.439 358.981 632.482 368.509 632.482C374.706 632.482 381.357 632.482 387.554 632.482C397.082 632.482 405.916 636.439 412.209 643.016C402.897 650.645 390.993 655.222 378.031 655.222C365.07 655.222 353.165 650.645 343.854 643.016Z" fill="#CA3B8F"/>
</g>
<g clip-path="url(#clip3)">
<path d="M747.693 389.8C747.693 403.187 744.194 412.689 738.735 419.615C733.224 426.608 725.298 431.503 715.572 434.879C695.837 441.73 670.447 441.795 647.722 441.795C625.005 441.795 599.262 441.732 579.178 434.87C569.27 431.484 561.177 426.575 555.549 419.572C549.983 412.644 546.418 403.157 546.418 389.8C546.418 364.825 551.797 334.428 567.13 310.48C582.236 286.887 607.197 269.172 647.722 269.172C686.135 269.172 710.819 286.918 726.159 310.694C741.692 334.769 747.693 365.2 747.693 389.8Z" fill="#FBC546" stroke="black" stroke-width="11.9508"/>
<path fill-rule="evenodd" clip-rule="evenodd" d="M610.396 355.11C615.672 355.11 620.726 353.012 624.455 349.283C628.184 345.554 630.282 340.5 630.282 335.224C630.282 329.693 630.282 323.689 630.282 318.158C630.282 307.169 621.374 298.261 610.385 298.261C610.379 298.261 610.379 298.261 610.373 298.261C605.098 298.261 600.044 300.358 596.314 304.088C592.585 307.817 590.487 312.871 590.487 318.147C590.487 323.678 590.487 329.681 590.487 335.213C590.487 346.202 599.396 355.11 610.385 355.11C610.39 355.11 610.39 355.11 610.396 355.11Z" fill="white"/>
<path fill-rule="evenodd" clip-rule="evenodd" d="M601.856 315.316C601.856 309.034 606.944 303.946 613.226 303.946C619.508 303.946 624.596 309.034 624.596 315.316C624.596 322.234 624.596 331.04 624.596 337.959C624.596 344.241 619.508 349.329 613.226 349.329C606.944 349.329 601.856 344.241 601.856 337.959C601.856 331.04 601.856 322.234 601.856 315.316Z" fill="black"/>
<path fill-rule="evenodd" clip-rule="evenodd" d="M684.278 355.11C679.002 355.11 673.948 353.012 670.219 349.283C666.489 345.554 664.392 340.5 664.392 335.224C664.392 329.693 664.392 323.689 664.392 318.158C664.392 307.169 673.3 298.261 684.289 298.261C684.295 298.261 684.295 298.261 684.3 298.261C689.576 298.261 694.63 300.358 698.359 304.088C702.088 307.817 704.186 312.871 704.186 318.147C704.186 323.678 704.186 329.681 704.186 335.213C704.186 346.202 695.278 355.11 684.289 355.11C684.283 355.11 684.283 355.11 684.278 355.11Z" fill="white"/>
<path fill-rule="evenodd" clip-rule="evenodd" d="M692.816 315.316C692.816 309.034 687.728 303.946 681.446 303.946C675.164 303.946 670.076 309.034 670.076 315.316C670.076 322.234 670.076 331.04 670.076 337.959C670.076 344.241 675.164 349.329 681.446 349.329C687.728 349.329 692.816 344.241 692.816 337.959C692.816 331.04 692.816 322.234 692.816 315.316Z" fill="black"/>
<path fill-rule="evenodd" clip-rule="evenodd" d="M610.783 402.517C600.118 391.192 594.559 375.223 591.631 360.795H703.044C700.117 375.223 694.557 391.192 683.892 402.517C677.559 394.296 617.116 394.296 610.783 402.517Z" fill="#722245"/>
<path fill-rule="evenodd" clip-rule="evenodd" d="M610.783 402.517C617.116 394.296 627.019 389.22 637.815 389.22C644.012 389.22 650.663 389.22 656.86 389.22C667.655 389.22 677.559 394.296 683.892 402.517C675.381 411.556 663.613 417.644 647.337 417.644C631.061 417.644 619.294 411.556 610.783 402.517Z" fill="#CA3B8F"/>
</g>
<path d="M474.152 129.538C474.152 142.925 470.653 152.427 465.194 159.353C459.683 166.346 451.757 171.241 442.031 174.617C422.296 181.468 396.906 181.533 374.181 181.533C351.464 181.533 325.721 181.47 305.637 174.608C295.729 171.222 287.636 166.313 282.008 159.309C276.442 152.382 272.877 142.895 272.877 129.538C272.877 104.563 278.256 74.1662 293.589 50.2178C308.695 26.6245 333.656 8.90998 374.181 8.90998C412.594 8.90998 437.278 26.6561 452.618 50.4314C468.151 74.5068 474.152 104.937 474.152 129.538Z" fill="#FBC546" stroke="black" stroke-width="11.9508"/>
<path fill-rule="evenodd" clip-rule="evenodd" d="M414.149 64.5415C414.655 64.0412 415.246 63.6319 415.9 63.3477C417.509 62.6484 419.402 62.7394 420.937 63.5921C421.477 63.8991 421.971 64.2914 422.392 64.7518C422.818 65.2237 423.165 65.7695 423.41 66.355C423.683 67.0088 423.836 67.7137 423.853 68.4243C423.87 69.1577 423.745 69.8853 423.484 70.5732C423.199 71.3293 422.756 72.0058 422.187 72.58L406.309 88.458H421.011C424.149 88.458 426.696 91.0049 426.696 94.143C426.696 97.2811 424.149 99.8279 421.011 99.8279H388.794L384.82 93.8644L414.149 64.5415Z" fill="black"/>
<path fill-rule="evenodd" clip-rule="evenodd" d="M338.597 111.197C343.873 111.197 348.927 109.1 352.656 105.37C356.385 101.641 358.483 96.5871 358.483 91.3115C358.483 87.5765 358.483 83.6653 358.483 79.9303C358.483 68.9413 349.575 60.033 338.586 60.033H338.574C333.299 60.033 328.245 62.1307 324.516 65.86C320.786 69.5893 318.688 74.6433 318.688 79.9189C318.688 83.6539 318.688 87.5651 318.688 91.3001C318.688 102.289 327.597 111.197 338.586 111.197H338.597Z" fill="white"/>
<path fill-rule="evenodd" clip-rule="evenodd" d="M330.059 77.0879C330.059 74.0749 331.258 71.1812 333.39 69.0494C335.522 66.9175 338.415 65.718 341.428 65.718C344.441 65.718 347.335 66.9175 349.467 69.0494C351.599 71.1812 352.798 74.0749 352.798 77.0879C352.798 82.409 352.798 88.7307 352.798 94.0461C352.798 97.0648 351.599 99.9527 349.467 102.09C347.335 104.222 344.441 105.416 341.428 105.416C338.415 105.416 335.522 104.222 333.39 102.09C331.258 99.9527 330.059 97.0648 330.059 94.0461C330.059 88.7307 330.059 82.409 330.059 77.0879Z" fill="black"/>
<path d="M335.743 122.567C335.743 122.567 337.147 124.443 339.154 127.115C347.744 138.565 361.223 145.307 375.538 145.307C389.852 145.307 403.331 138.565 411.921 127.115C413.928 124.443 415.332 122.567 415.332 122.567" stroke="#593604" stroke-width="11.3699" stroke-miterlimit="1.5" stroke-linecap="round"/>
<path d="M213.226 392.456C213.226 450.426 152.176 450.426 107.279 450.426C62.3828 450.426 1.79628e-07 450.426 0 392.456C-1.5878e-07 341.148 21.9888 265.853 107.279 265.853C188.572 265.853 213.226 341.671 213.226 392.456Z" fill="black"/>
<path fill-rule="evenodd" clip-rule="evenodd" d="M22.5989 302.409C21.684 300.227 21.2461 298.024 21.2461 295.874C21.2461 289.365 25.2589 282.319 34.4869 276.908C47.9499 269.013 74.9936 263.197 106.233 263.197C137.466 263.197 164.51 269.013 177.973 276.908C187.201 282.319 191.213 289.365 191.213 295.874C191.213 298.024 190.775 300.227 189.861 302.409H157.392C159.451 301.756 161.373 301.057 163.144 300.325C165.921 299.174 168.267 297.952 170.058 296.606C170.326 296.41 170.62 296.142 170.888 295.874C170.62 295.606 170.326 295.338 170.058 295.142C168.267 293.796 165.921 292.574 163.144 291.423C150.308 286.097 129.578 282.803 106.233 282.803C82.8884 282.803 62.1514 286.097 49.3224 291.423C46.5383 292.574 44.192 293.796 42.4013 295.142C42.1334 295.338 41.8393 295.606 41.5713 295.874C41.8393 296.142 42.1334 296.41 42.4013 296.606C44.192 297.952 46.5383 299.174 49.3224 300.325C51.0935 301.057 53.0149 301.756 55.067 302.409H22.5989Z" fill="#1BB0E6"/>
<path d="M200.478 388.953C200.478 436.484 146.88 439.848 107.463 439.848C68.0468 439.848 13.2783 439.848 13.2783 388.953C13.2783 343.908 32.5832 277.803 107.463 277.803C178.833 277.803 200.478 344.367 200.478 388.953Z" fill="#FBC546"/>
<path fill-rule="evenodd" clip-rule="evenodd" d="M176.51 311.664C175.182 306.352 181.822 318.303 185.805 325.618C184.324 326.627 182.639 327.598 180.737 328.512C166.74 335.25 138.624 340.213 106.154 340.213C73.676 340.213 45.5604 335.25 31.5637 328.512C29.6477 327.587 28.613 326.622 27.125 325.606C31.1086 316.975 37.748 307.68 36.4201 311.664L106.154 325.596L176.51 311.664Z" fill="#E59A10"/>
<path fill-rule="evenodd" clip-rule="evenodd" d="M53.45 359.802C54.5187 360.865 55.9627 361.462 57.4749 361.462C58.9814 361.462 60.4254 360.865 61.4941 359.802C61.4998 359.791 61.5055 359.785 61.5055 359.785C64.2059 357.085 67.8727 355.567 71.6929 355.567C75.5132 355.567 79.18 357.085 81.8803 359.785C81.8803 359.785 81.886 359.791 81.8974 359.802C84.1145 362.019 87.7131 362.019 89.9302 359.802L89.9359 359.796C92.153 357.579 92.153 353.981 89.9359 351.763C89.9245 351.752 89.9189 351.746 89.9189 351.746C85.0867 346.914 78.5262 344.197 71.6929 344.197C64.8596 344.197 58.2992 346.914 53.467 351.746C53.467 351.746 53.4613 351.752 53.45 351.763C51.2328 353.981 51.2328 357.579 53.45 359.796C53.45 359.796 53.45 359.796 53.45 359.802Z" fill="black"/>
<path fill-rule="evenodd" clip-rule="evenodd" d="M158.155 359.802C157.086 360.865 155.642 361.462 154.13 361.462C152.623 361.462 151.179 360.865 150.11 359.802C150.105 359.791 150.099 359.785 150.099 359.785C147.399 357.085 143.732 355.567 139.912 355.567C136.091 355.567 132.425 357.085 129.724 359.785C129.724 359.785 129.719 359.791 129.707 359.802C127.49 362.019 123.892 362.019 121.674 359.802L121.669 359.796C119.452 357.579 119.452 353.981 121.669 351.763C121.68 351.752 121.686 351.746 121.686 351.746C126.518 346.914 133.078 344.197 139.912 344.197C146.745 344.197 153.305 346.914 158.138 351.746C158.138 351.746 158.143 351.752 158.155 351.763C160.372 353.981 160.372 357.579 158.155 359.796C158.155 359.796 158.155 359.796 158.155 359.802Z" fill="black"/>
<path d="M65.999 381.349C65.999 381.349 67.4032 383.225 69.41 385.897C77.9999 397.346 91.4789 404.088 105.794 404.088C120.108 404.088 133.587 397.346 142.177 385.897C144.184 383.225 145.588 381.349 145.588 381.349" stroke="#593604" stroke-width="11.3699" stroke-miterlimit="1.5" stroke-linecap="round"/>
<path fill-rule="evenodd" clip-rule="evenodd" d="M191.213 295.874C191.213 302.383 187.201 309.429 177.973 314.84C164.51 322.735 137.466 328.551 106.233 328.551C74.9936 328.551 47.9499 322.735 34.4869 314.84C25.2589 309.429 21.2461 302.383 21.2461 295.874H41.5713C41.8393 296.142 42.1334 296.41 42.4013 296.606C44.192 297.952 46.5383 299.174 49.3224 300.325C62.1514 305.651 82.8884 308.945 106.233 308.945C129.578 308.945 150.308 305.651 163.144 300.325C165.921 299.174 168.267 297.952 170.058 296.606C170.326 296.41 170.62 296.142 170.888 295.874H191.213Z" fill="#1BB0E6"/>
<path d="M207.251 129.538C207.251 142.925 203.751 152.427 198.292 159.353C192.781 166.346 184.855 171.241 175.129 174.617C155.395 181.468 130.005 181.533 107.279 181.533C84.5622 181.533 58.8196 181.47 38.7355 174.608C28.8271 171.222 20.7343 166.313 15.107 159.309C9.5409 152.382 5.97541 142.895 5.97541 129.538C5.97541 104.563 11.3547 74.1662 26.688 50.2178C41.7939 26.6245 66.7547 8.90998 107.279 8.90998C145.693 8.90998 170.377 26.6561 185.716 50.4314C201.25 74.5068 207.251 104.937 207.251 129.538Z" fill="#FBC546" stroke="black" stroke-width="11.9508"/>
<path fill-rule="evenodd" clip-rule="evenodd" d="M69.0395 111.197C74.3151 111.197 79.3691 109.1 83.0984 105.37C86.8277 101.641 88.9254 96.5871 88.9254 91.3115C88.9254 87.5765 88.9254 83.6653 88.9254 79.9303C88.9254 68.9413 80.0171 60.033 69.0282 60.033H69.0168C63.7412 60.033 58.6872 62.1307 54.9579 65.86C51.2286 69.5893 49.1309 74.6433 49.1309 79.9189C49.1309 83.6539 49.1309 87.5651 49.1309 91.3001C49.1309 102.289 58.0392 111.197 69.0282 111.197H69.0395Z" fill="white"/>
<path fill-rule="evenodd" clip-rule="evenodd" d="M60.501 77.0879C60.501 74.0749 61.7005 71.1812 63.8324 69.0494C65.9642 66.9175 68.8578 65.718 71.8709 65.718C74.8839 65.718 77.7775 66.9175 79.9094 69.0494C82.0412 71.1812 83.2407 74.0749 83.2407 77.0879C83.2407 82.409 83.2407 88.7307 83.2407 94.0461C83.2407 97.0648 82.0412 99.9527 79.9094 102.09C77.7775 104.222 74.8839 105.416 71.8709 105.416C68.8578 105.416 65.9642 104.222 63.8324 102.09C61.7005 99.9527 60.501 97.0648 60.501 94.0461C60.501 88.7307 60.501 82.409 60.501 77.0879Z" fill="black"/>
<path fill-rule="evenodd" clip-rule="evenodd" d="M142.921 111.197C137.645 111.197 132.592 109.1 128.862 105.37C125.133 101.641 123.035 96.5871 123.035 91.3115C123.035 87.5765 123.035 83.6653 123.035 79.9303C123.035 68.9413 131.943 60.033 142.932 60.033H142.944C148.219 60.033 153.273 62.1307 157.003 65.86C160.732 69.5893 162.83 74.6433 162.83 79.9189C162.83 83.6539 162.83 87.5651 162.83 91.3001C162.83 102.289 153.921 111.197 142.932 111.197H142.921Z" fill="white"/>
<path fill-rule="evenodd" clip-rule="evenodd" d="M151.46 77.0879C151.46 74.0749 150.261 71.1812 148.129 69.0494C145.997 66.9175 143.104 65.718 140.091 65.718C137.078 65.718 134.184 66.9175 132.052 69.0494C129.92 71.1812 128.721 74.0749 128.721 77.0879C128.721 82.409 128.721 88.7307 128.721 94.0461C128.721 97.0648 129.92 99.9527 132.052 102.09C134.184 104.222 137.078 105.416 140.091 105.416C143.104 105.416 145.997 104.222 148.129 102.09C150.261 99.9527 151.46 97.0648 151.46 94.0461C151.46 88.7307 151.46 82.409 151.46 77.0879Z" fill="black"/>
<path d="M60.501 122.567C60.501 122.567 63.4174 125.484 67.1637 129.23C77.4592 139.526 91.4214 145.307 105.981 145.307C120.54 145.307 134.502 139.526 144.797 129.23C148.544 125.484 151.46 122.567 151.46 122.567" stroke="#593604" stroke-width="9.87603" stroke-miterlimit="1.5" stroke-linecap="round"/>
<path d="M539.779 58.2495C539.779 44.862 543.278 35.3601 548.737 28.4339C554.248 21.441 562.174 16.5462 571.9 13.17C591.635 6.31931 617.024 6.25409 639.75 6.2541C662.467 6.2541 688.21 6.31707 708.294 13.1795C718.202 16.565 726.295 21.4739 731.922 28.4778C737.488 35.4054 741.054 44.8925 741.054 58.2495C741.054 83.2243 735.675 113.621 720.341 137.569C705.235 161.163 680.275 178.877 639.75 178.877C601.337 178.877 576.653 161.131 561.313 137.356C545.78 113.28 539.779 82.8498 539.779 58.2495Z" fill="#FBC546" stroke="black" stroke-width="11.9508"/>
<path fill-rule="evenodd" clip-rule="evenodd" d="M677.988 76.5899C672.712 76.5899 667.658 78.6877 663.929 82.417C660.2 86.1463 658.102 91.2002 658.102 96.4758C658.102 100.211 658.102 104.122 658.102 107.857C658.102 118.846 667.01 127.754 677.999 127.754L678.011 127.754C683.286 127.754 688.34 125.657 692.069 121.927C695.799 118.198 697.896 113.144 697.896 107.868C697.896 104.133 697.896 100.222 697.896 96.4872C697.896 85.4982 688.988 76.5899 677.999 76.5899L677.988 76.5899Z" fill="white"/>
<path fill-rule="evenodd" clip-rule="evenodd" d="M686.527 110.699C686.527 113.712 685.328 116.606 683.196 118.738C681.064 120.87 678.17 122.069 675.157 122.069C672.144 122.069 669.251 120.87 667.119 118.738C664.987 116.606 663.788 113.712 663.788 110.699C663.788 105.378 663.788 99.0567 663.788 93.7413C663.788 90.7226 664.987 87.8346 667.119 85.6971C669.251 83.5652 672.144 82.3714 675.157 82.3714C678.17 82.3714 681.064 83.5652 683.196 85.6971C685.328 87.8346 686.527 90.7226 686.527 93.7413C686.527 99.0567 686.527 105.378 686.527 110.699Z" fill="black"/>
<path fill-rule="evenodd" clip-rule="evenodd" d="M604.106 76.5899C609.382 76.5899 614.436 78.6877 618.165 82.417C621.894 86.1463 623.992 91.2002 623.992 96.4758C623.992 100.211 623.992 104.122 623.992 107.857C623.992 118.846 615.084 127.754 604.095 127.754L604.084 127.754C598.808 127.754 593.754 125.657 590.025 121.927C586.295 118.198 584.198 113.144 584.198 107.868C584.198 104.133 584.198 100.222 584.198 96.4872C584.198 85.4982 593.106 76.5899 604.095 76.5899L604.106 76.5899Z" fill="white"/>
<path fill-rule="evenodd" clip-rule="evenodd" d="M595.568 110.699C595.568 113.712 596.767 116.606 598.899 118.738C601.031 120.87 603.925 122.069 606.938 122.069C609.951 122.069 612.844 120.87 614.976 118.738C617.108 116.606 618.308 113.712 618.308 110.699C618.308 105.378 618.308 99.0567 618.308 93.7413C618.308 90.7226 617.108 87.8346 614.976 85.6971C612.844 83.5652 609.951 82.3714 606.938 82.3714C603.925 82.3714 601.031 83.5652 598.899 85.6971C596.767 87.8346 595.568 90.7226 595.568 93.7413C595.568 99.0567 595.568 105.378 595.568 110.699Z" fill="black"/>
<path d="M686.527 65.22C686.527 65.22 683.611 62.3036 679.865 58.5572C669.569 48.2618 655.607 42.4802 641.048 42.4802C626.489 42.4802 612.526 48.2618 602.231 58.5572C598.485 62.3036 595.568 65.22 595.568 65.22" stroke="#593604" stroke-width="9.87603" stroke-miterlimit="1.5" stroke-linecap="round"/>
<path d="M474.152 391.128C474.152 404.515 470.653 414.017 465.194 420.944C459.683 427.936 451.757 432.831 442.031 436.207C422.296 443.058 396.906 443.123 374.181 443.123C351.464 443.123 325.721 443.06 305.637 436.198C295.729 432.812 287.636 427.904 282.008 420.9C276.442 413.972 272.877 404.485 272.877 391.128C272.877 366.153 278.256 335.757 293.589 311.808C308.695 288.215 333.656 270.5 374.181 270.5C412.594 270.5 437.278 288.246 452.618 312.022C468.151 336.097 474.152 366.528 474.152 391.128Z" fill="#FBC546" stroke="black" stroke-width="11.9508"/>
<path d="M338.959 384.365C338.959 384.365 342.16 388.629 345.787 393.467C352.222 402.051 362.33 407.105 373.063 407.105H373.069C383.807 407.105 393.915 402.051 400.356 393.461C403.983 388.629 407.178 384.365 407.178 384.365" stroke="#593604" stroke-width="11.3699" stroke-miterlimit="1.5" stroke-linecap="round"/>
<path d="M431.095 340.553C432.164 341.616 432.761 343.066 432.761 344.572C432.761 346.079 432.164 347.528 431.095 348.591C424.006 355.68 410.021 369.665 410.021 369.665C410.021 369.665 396.036 355.68 388.947 348.591C387.878 347.528 387.281 346.079 387.281 344.572C387.281 343.066 387.878 341.616 388.947 340.553C391.164 338.33 394.768 338.33 396.985 340.553C402.028 345.595 410.021 353.588 410.021 353.588C410.021 353.588 418.014 345.595 423.057 340.553C425.274 338.33 428.878 338.33 431.095 340.553Z" fill="black"/>
<path d="M357.196 340.56C359.414 342.777 359.414 346.37 357.196 348.587C350.107 355.676 336.117 369.667 336.117 369.667C336.117 369.667 322.132 355.682 315.043 348.593C313.974 347.53 313.377 346.08 313.377 344.574C313.377 343.067 313.974 341.617 315.043 340.554C317.26 338.331 320.864 338.331 323.081 340.554C328.124 345.597 336.117 353.59 336.117 353.59C336.117 353.59 344.115 345.591 349.158 340.549C351.375 338.331 354.968 338.331 357.185 340.549C357.191 340.554 357.191 340.554 357.196 340.56Z" fill="black"/>
<defs>
<clipPath id="clip0">
<rect width="213.229" height="213.229" fill="white" transform="translate(541.771 503.541)"/>
</clipPath>
<clipPath id="clip1">
<rect width="213.229" height="213.229" fill="white" transform="translate(5.31152 496.902)"/>
</clipPath>
<clipPath id="clip2">
<rect width="213.229" height="213.229" fill="white" transform="translate(272.213 503.541)"/>
</clipPath>
<clipPath id="clip3">
<rect width="213.229" height="213.229" fill="white" transform="translate(540.443 249.918)"/>
</clipPath>
</defs>
</svg>
