<svg width="306" height="61" viewBox="0 0 306 61" fill="none" xmlns="http://www.w3.org/2000/svg">
<path d="M68.4945 41.8412C68.4945 46.2656 67.3379 49.4059 65.5339 51.695C63.7124 54.006 61.093 55.6237 57.8787 56.7395C51.3565 59.0036 42.9655 59.0252 35.4549 59.0252C27.9471 59.0252 19.4394 59.0044 12.8017 56.7364C9.52711 55.6175 6.85249 53.9952 4.99272 51.6805C3.15318 49.3909 1.97482 46.2556 1.97482 41.8412C1.97482 33.5872 3.75264 23.5414 8.82015 15.6267C13.8125 7.82931 22.0618 1.97482 35.4549 1.97482C48.1501 1.97482 56.3079 7.83975 61.3776 15.6973C66.5112 23.654 68.4945 33.711 68.4945 41.8412Z" stroke="white" stroke-width="3.94964"/>
<path fill-rule="evenodd" clip-rule="evenodd" d="M32.8839 28.7642C33.4741 29.3544 34.2738 29.6852 35.1078 29.6852C35.9418 29.6852 36.7416 29.3544 37.3317 28.7642C40.7204 25.3756 46.7864 19.3096 46.7864 19.3096C51.1674 22.765 53.9783 28.1213 53.9783 34.133C53.9783 39.6073 51.6426 44.5396 47.9154 47.9873C47.2973 48.5386 46.3577 48.5122 45.7738 47.9267C45.0967 47.2667 44.2193 46.3892 43.5126 45.6842C43.2052 45.3751 43.039 44.9527 43.0545 44.5179C43.0685 44.0815 43.2642 43.6715 43.5934 43.3857C46.1155 41.1044 47.6887 37.8011 47.6887 34.133H35.1078H22.527C22.527 37.8011 24.1001 41.1044 26.6067 43.4044C26.9313 43.6855 27.1223 44.0892 27.1378 44.5179C27.1533 44.9465 26.9887 45.3627 26.6859 45.6655C25.9964 46.3892 25.1189 47.2667 24.4511 47.936C23.8625 48.5262 22.9137 48.5526 22.2909 47.9981C18.573 44.5396 16.2373 39.6073 16.2373 34.133C16.2373 28.1213 19.0498 22.765 23.4292 19.3096C23.4292 19.3096 29.4953 25.3756 32.8839 28.7642Z" fill="white"/>
<path d="M107.864 20.088C107.984 19.896 108.152 19.8 108.368 19.8H111.68C111.8 19.8 111.896 19.848 111.968 19.944C112.064 20.016 112.112 20.112 112.112 20.232V44.568C112.112 44.688 112.064 44.796 111.968 44.892C111.896 44.964 111.8 45 111.68 45H108.368C108.248 45 108.14 44.964 108.044 44.892C107.972 44.796 107.936 44.688 107.936 44.568V27.396C107.936 27.324 107.9 27.276 107.828 27.252C107.78 27.228 107.744 27.252 107.72 27.324L103.22 34.236C103.1 34.428 102.932 34.524 102.716 34.524H101.06C100.844 34.524 100.676 34.428 100.556 34.236L96.02 27.36C95.996 27.288 95.948 27.264 95.876 27.288C95.828 27.312 95.804 27.36 95.804 27.432V44.568C95.804 44.688 95.756 44.796 95.66 44.892C95.588 44.964 95.492 45 95.372 45H92.06C91.94 45 91.832 44.964 91.736 44.892C91.664 44.796 91.628 44.688 91.628 44.568V20.232C91.628 20.112 91.664 20.016 91.736 19.944C91.832 19.848 91.94 19.8 92.06 19.8H95.372C95.588 19.8 95.756 19.896 95.876 20.088L101.744 28.98C101.792 29.028 101.84 29.052 101.888 29.052C101.936 29.052 101.972 29.028 101.996 28.98L107.864 20.088ZM127.838 27.036C127.838 26.916 127.874 26.82 127.946 26.748C128.042 26.652 128.15 26.604 128.27 26.604H131.546C131.666 26.604 131.762 26.652 131.834 26.748C131.93 26.82 131.978 26.916 131.978 27.036V44.568C131.978 44.688 131.93 44.796 131.834 44.892C131.762 44.964 131.666 45 131.546 45H128.27C128.15 45 128.042 44.964 127.946 44.892C127.874 44.796 127.838 44.688 127.838 44.568V43.416C127.838 43.344 127.814 43.296 127.766 43.272C127.718 43.248 127.67 43.272 127.622 43.344C126.638 44.616 125.162 45.252 123.194 45.252C121.37 45.252 119.834 44.724 118.586 43.668C117.362 42.612 116.75 41.112 116.75 39.168V27.036C116.75 26.916 116.786 26.82 116.858 26.748C116.954 26.652 117.062 26.604 117.182 26.604H120.494C120.614 26.604 120.71 26.652 120.782 26.748C120.878 26.82 120.926 26.916 120.926 27.036V37.98C120.926 39.108 121.214 40.008 121.79 40.68C122.39 41.352 123.218 41.688 124.274 41.688C125.354 41.688 126.218 41.352 126.866 40.68C127.514 40.008 127.838 39.108 127.838 37.98V27.036ZM146.199 29.556C146.199 29.676 146.151 29.784 146.055 29.88C145.983 29.952 145.887 29.988 145.767 29.988H142.095C141.975 29.988 141.915 30.048 141.915 30.168V38.844C141.915 39.756 142.107 40.416 142.491 40.824C142.899 41.232 143.535 41.436 144.399 41.436H145.479C145.599 41.436 145.695 41.484 145.767 41.58C145.863 41.652 145.911 41.748 145.911 41.868V44.568C145.911 44.832 145.767 44.988 145.479 45.036L143.607 45.072C141.711 45.072 140.295 44.748 139.359 44.1C138.423 43.452 137.943 42.228 137.919 40.428V30.168C137.919 30.048 137.859 29.988 137.739 29.988H135.687C135.567 29.988 135.459 29.952 135.363 29.88C135.291 29.784 135.255 29.676 135.255 29.556V27.036C135.255 26.916 135.291 26.82 135.363 26.748C135.459 26.652 135.567 26.604 135.687 26.604H137.739C137.859 26.604 137.919 26.544 137.919 26.424V22.212C137.919 22.092 137.955 21.996 138.027 21.924C138.123 21.828 138.231 21.78 138.351 21.78H141.483C141.603 21.78 141.699 21.828 141.771 21.924C141.867 21.996 141.915 22.092 141.915 22.212V26.424C141.915 26.544 141.975 26.604 142.095 26.604H145.767C145.887 26.604 145.983 26.652 146.055 26.748C146.151 26.82 146.199 26.916 146.199 27.036V29.556ZM156.928 26.316C158.44 26.316 159.772 26.58 160.924 27.108C162.076 27.636 162.964 28.368 163.588 29.304C164.212 30.216 164.524 31.26 164.524 32.436V44.568C164.524 44.688 164.476 44.796 164.38 44.892C164.308 44.964 164.212 45 164.092 45H160.78C160.66 45 160.552 44.964 160.456 44.892C160.384 44.796 160.348 44.688 160.348 44.568V43.416C160.348 43.344 160.324 43.308 160.276 43.308C160.228 43.284 160.18 43.296 160.132 43.344C158.956 44.64 157.252 45.288 155.02 45.288C153.22 45.288 151.732 44.832 150.556 43.92C149.404 43.008 148.828 41.652 148.828 39.852C148.828 37.98 149.476 36.528 150.772 35.496C152.092 34.44 153.94 33.912 156.316 33.912H160.168C160.288 33.912 160.348 33.852 160.348 33.732V32.868C160.348 31.932 160.072 31.212 159.52 30.708C158.968 30.18 158.14 29.916 157.036 29.916C156.124 29.916 155.38 30.084 154.804 30.42C154.252 30.732 153.904 31.176 153.76 31.752C153.688 32.04 153.52 32.16 153.256 32.112L149.764 31.68C149.644 31.656 149.536 31.62 149.44 31.572C149.368 31.5 149.344 31.416 149.368 31.32C149.56 29.856 150.34 28.656 151.708 27.72C153.1 26.784 154.84 26.316 156.928 26.316ZM156.064 41.976C157.24 41.976 158.248 41.664 159.088 41.04C159.928 40.416 160.348 39.624 160.348 38.664V36.972C160.348 36.852 160.288 36.792 160.168 36.792H157.144C155.872 36.792 154.864 37.032 154.12 37.512C153.4 37.992 153.04 38.676 153.04 39.564C153.04 40.332 153.316 40.932 153.868 41.364C154.444 41.772 155.176 41.976 156.064 41.976ZM177.536 26.316C179.48 26.316 181.028 26.892 182.18 28.044C183.356 29.196 183.944 30.768 183.944 32.76V44.568C183.944 44.688 183.896 44.796 183.8 44.892C183.728 44.964 183.632 45 183.512 45H180.2C180.08 45 179.972 44.964 179.876 44.892C179.804 44.796 179.768 44.688 179.768 44.568V33.624C179.768 32.52 179.456 31.632 178.832 30.96C178.208 30.264 177.38 29.916 176.348 29.916C175.316 29.916 174.476 30.252 173.828 30.924C173.204 31.596 172.892 32.484 172.892 33.588V44.568C172.892 44.688 172.844 44.796 172.748 44.892C172.676 44.964 172.58 45 172.46 45H169.148C169.028 45 168.92 44.964 168.824 44.892C168.752 44.796 168.716 44.688 168.716 44.568V27.036C168.716 26.916 168.752 26.82 168.824 26.748C168.92 26.652 169.028 26.604 169.148 26.604H172.46C172.58 26.604 172.676 26.652 172.748 26.748C172.844 26.82 172.892 26.916 172.892 27.036V28.188C172.892 28.26 172.916 28.308 172.964 28.332C173.012 28.356 173.048 28.332 173.072 28.26C174.056 26.964 175.544 26.316 177.536 26.316ZM198.054 29.556C198.054 29.676 198.006 29.784 197.91 29.88C197.838 29.952 197.742 29.988 197.622 29.988H193.95C193.83 29.988 193.77 30.048 193.77 30.168V38.844C193.77 39.756 193.962 40.416 194.346 40.824C194.754 41.232 195.39 41.436 196.254 41.436H197.334C197.454 41.436 197.55 41.484 197.622 41.58C197.718 41.652 197.766 41.748 197.766 41.868V44.568C197.766 44.832 197.622 44.988 197.334 45.036L195.462 45.072C193.566 45.072 192.15 44.748 191.214 44.1C190.278 43.452 189.798 42.228 189.774 40.428V30.168C189.774 30.048 189.714 29.988 189.594 29.988H187.542C187.422 29.988 187.314 29.952 187.218 29.88C187.146 29.784 187.11 29.676 187.11 29.556V27.036C187.11 26.916 187.146 26.82 187.218 26.748C187.314 26.652 187.422 26.604 187.542 26.604H189.594C189.714 26.604 189.774 26.544 189.774 26.424V22.212C189.774 22.092 189.81 21.996 189.882 21.924C189.978 21.828 190.086 21.78 190.206 21.78H193.338C193.458 21.78 193.554 21.828 193.626 21.924C193.722 21.996 193.77 22.092 193.77 22.212V26.424C193.77 26.544 193.83 26.604 193.95 26.604H197.622C197.742 26.604 197.838 26.652 197.91 26.748C198.006 26.82 198.054 26.916 198.054 27.036V29.556ZM223.514 45C223.274 45 223.106 44.892 223.01 44.676L218.258 34.308C218.21 34.212 218.138 34.164 218.042 34.164H213.722C213.602 34.164 213.542 34.224 213.542 34.344V44.568C213.542 44.688 213.494 44.796 213.398 44.892C213.326 44.964 213.23 45 213.11 45H209.798C209.678 45 209.57 44.964 209.474 44.892C209.402 44.796 209.366 44.688 209.366 44.568V20.232C209.366 20.112 209.402 20.016 209.474 19.944C209.57 19.848 209.678 19.8 209.798 19.8H219.698C221.162 19.8 222.458 20.112 223.586 20.736C224.714 21.336 225.59 22.2 226.214 23.328C226.838 24.432 227.15 25.704 227.15 27.144C227.15 28.8 226.718 30.216 225.854 31.392C225.014 32.544 223.838 33.348 222.326 33.804C222.278 33.804 222.242 33.828 222.218 33.876C222.194 33.924 222.194 33.972 222.218 34.02L227.294 44.496C227.342 44.592 227.366 44.664 227.366 44.712C227.366 44.904 227.234 45 226.97 45H223.514ZM213.722 23.4C213.602 23.4 213.542 23.46 213.542 23.58V30.744C213.542 30.864 213.602 30.924 213.722 30.924H219.122C220.274 30.924 221.198 30.588 221.894 29.916C222.614 29.22 222.974 28.308 222.974 27.18C222.974 26.052 222.614 25.14 221.894 24.444C221.198 23.748 220.274 23.4 219.122 23.4H213.722ZM246.353 33.732C246.449 34.332 246.497 35.004 246.497 35.748L246.461 36.864C246.461 37.152 246.317 37.296 246.029 37.296H234.761C234.641 37.296 234.581 37.356 234.581 37.476C234.653 38.268 234.761 38.808 234.905 39.096C235.481 40.824 236.885 41.7 239.117 41.724C240.749 41.724 242.045 41.052 243.005 39.708C243.101 39.564 243.221 39.492 243.365 39.492C243.461 39.492 243.545 39.528 243.617 39.6L245.849 41.436C246.065 41.604 246.101 41.796 245.957 42.012C245.213 43.068 244.217 43.884 242.969 44.46C241.745 45.036 240.377 45.324 238.865 45.324C236.993 45.324 235.397 44.904 234.077 44.064C232.781 43.224 231.833 42.048 231.233 40.536C230.681 39.24 230.405 37.44 230.405 35.136C230.405 33.744 230.549 32.616 230.837 31.752C231.317 30.072 232.217 28.752 233.537 27.792C234.881 26.808 236.489 26.316 238.361 26.316C243.089 26.316 245.753 28.788 246.353 33.732ZM238.361 29.916C237.473 29.916 236.729 30.144 236.129 30.6C235.553 31.032 235.145 31.644 234.905 32.436C234.761 32.844 234.665 33.372 234.617 34.02C234.569 34.14 234.617 34.2 234.761 34.2H242.069C242.189 34.2 242.249 34.14 242.249 34.02C242.201 33.42 242.129 32.964 242.033 32.652C241.817 31.788 241.385 31.116 240.737 30.636C240.113 30.156 239.321 29.916 238.361 29.916ZM270.006 26.316C271.854 26.316 273.294 26.88 274.326 28.008C275.382 29.112 275.91 30.66 275.91 32.652V44.568C275.91 44.688 275.862 44.796 275.766 44.892C275.694 44.964 275.598 45 275.478 45H272.202C272.082 45 271.974 44.964 271.878 44.892C271.806 44.796 271.77 44.688 271.77 44.568V33.516C271.77 32.412 271.47 31.536 270.87 30.888C270.294 30.24 269.514 29.916 268.53 29.916C267.546 29.916 266.742 30.24 266.118 30.888C265.494 31.536 265.182 32.4 265.182 33.48V44.568C265.182 44.688 265.134 44.796 265.038 44.892C264.966 44.964 264.87 45 264.75 45H261.474C261.354 45 261.246 44.964 261.15 44.892C261.078 44.796 261.042 44.688 261.042 44.568V33.516C261.042 32.412 260.742 31.536 260.142 30.888C259.542 30.24 258.75 29.916 257.766 29.916C256.854 29.916 256.098 30.18 255.498 30.708C254.922 31.236 254.586 31.956 254.49 32.868V44.568C254.49 44.688 254.442 44.796 254.346 44.892C254.274 44.964 254.178 45 254.058 45H250.746C250.626 45 250.518 44.964 250.422 44.892C250.35 44.796 250.314 44.688 250.314 44.568V27.036C250.314 26.916 250.35 26.82 250.422 26.748C250.518 26.652 250.626 26.604 250.746 26.604H254.058C254.178 26.604 254.274 26.652 254.346 26.748C254.442 26.82 254.49 26.916 254.49 27.036V28.224C254.49 28.296 254.514 28.344 254.562 28.368C254.61 28.392 254.658 28.368 254.706 28.296C255.234 27.624 255.882 27.132 256.65 26.82C257.442 26.484 258.318 26.316 259.278 26.316C260.454 26.316 261.486 26.556 262.374 27.036C263.262 27.516 263.946 28.212 264.426 29.124C264.498 29.22 264.582 29.22 264.678 29.124C265.206 28.164 265.938 27.456 266.874 27C267.81 26.544 268.854 26.316 270.006 26.316ZM282.538 24.084C281.794 24.084 281.182 23.844 280.702 23.364C280.222 22.884 279.982 22.272 279.982 21.528C279.982 20.784 280.222 20.172 280.702 19.692C281.182 19.212 281.794 18.972 282.538 18.972C283.282 18.972 283.894 19.212 284.374 19.692C284.854 20.172 285.094 20.784 285.094 21.528C285.094 22.272 284.854 22.884 284.374 23.364C283.894 23.844 283.282 24.084 282.538 24.084ZM280.81 45C280.69 45 280.582 44.964 280.486 44.892C280.414 44.796 280.378 44.688 280.378 44.568V27C280.378 26.88 280.414 26.784 280.486 26.712C280.582 26.616 280.69 26.568 280.81 26.568H284.122C284.242 26.568 284.338 26.616 284.41 26.712C284.506 26.784 284.554 26.88 284.554 27V44.568C284.554 44.688 284.506 44.796 284.41 44.892C284.338 44.964 284.242 45 284.122 45H280.81ZM288.365 45C288.197 45 288.077 44.952 288.005 44.856C287.957 44.736 287.981 44.604 288.077 44.46L293.909 35.892C293.957 35.82 293.957 35.748 293.909 35.676L288.077 27.144C288.029 27.048 288.005 26.964 288.005 26.892C288.005 26.7 288.125 26.604 288.365 26.604H291.893C292.109 26.604 292.277 26.7 292.397 26.892L296.141 32.436C296.189 32.484 296.237 32.508 296.285 32.508C296.333 32.508 296.369 32.484 296.393 32.436L300.137 26.892C300.257 26.7 300.425 26.604 300.641 26.604H304.421C304.589 26.604 304.697 26.664 304.745 26.784C304.817 26.88 304.805 27 304.709 27.144L298.877 35.676C298.853 35.748 298.853 35.82 298.877 35.892L304.709 44.46C304.757 44.556 304.781 44.64 304.781 44.712C304.781 44.904 304.661 45 304.421 45H300.893C300.677 45 300.509 44.904 300.389 44.712L296.645 39.168C296.621 39.12 296.585 39.096 296.537 39.096C296.489 39.096 296.441 39.12 296.393 39.168L292.649 44.712C292.529 44.904 292.361 45 292.145 45H288.365Z" fill="white"/>
</svg>
